<svg width="1209" height="1116" viewBox="0 0 1209 1116" fill="none" xmlns="http://www.w3.org/2000/svg">
<g filter="url(#filter0_dd_10064_45783)">
<rect x="29" y="725.686" width="312.926" height="300.703" rx="48.1787" fill="#393939"/>
<rect x="30.2045" y="726.89" width="310.517" height="298.294" rx="46.9742" stroke="#E4E4E4" stroke-opacity="0.03" stroke-width="2.40893"/>
<rect x="43.4521" y="740.139" width="284.254" height="171.948" rx="33.7251" fill="#E4E4E4" fill-opacity="0.1"/>
<rect x="44.6566" y="741.344" width="281.845" height="169.539" rx="32.5206" stroke="#E4E4E4" stroke-opacity="0.03" stroke-width="2.40893"/>
<path d="M150.91 806.57V845.113H145.075V812.404H144.85L135.628 818.427V812.856L145.245 806.57H150.91ZM175.814 845.753C172.841 845.741 170.3 844.956 168.192 843.401C166.084 841.845 164.472 839.58 163.355 836.607C162.239 833.633 161.681 830.051 161.681 825.861C161.681 821.683 162.239 818.113 163.355 815.152C164.485 812.191 166.103 809.933 168.211 808.377C170.331 806.821 172.866 806.043 175.814 806.043C178.763 806.043 181.291 806.828 183.399 808.396C185.506 809.952 187.119 812.21 188.235 815.171C189.364 818.119 189.929 821.683 189.929 825.861C189.929 830.064 189.371 833.652 188.254 836.626C187.137 839.587 185.525 841.851 183.417 843.419C181.31 844.975 178.775 845.753 175.814 845.753ZM175.814 840.728C178.424 840.728 180.463 839.455 181.931 836.908C183.411 834.361 184.151 830.678 184.151 825.861C184.151 822.661 183.813 819.957 183.135 817.749C182.47 815.529 181.51 813.847 180.256 812.706C179.014 811.551 177.533 810.974 175.814 810.974C173.217 810.974 171.178 812.254 169.698 814.813C168.217 817.373 167.471 821.055 167.458 825.861C167.458 829.073 167.791 831.789 168.456 834.01C169.133 836.218 170.093 837.893 171.335 839.034C172.577 840.164 174.07 840.728 175.814 840.728ZM217.784 837.886V835.854C217.784 834.399 218.085 833.069 218.687 831.864C219.302 830.647 220.193 829.675 221.359 828.947C222.539 828.207 223.963 827.837 225.632 827.837C227.338 827.837 228.768 828.201 229.922 828.928C231.077 829.656 231.949 830.628 232.538 831.845C233.141 833.062 233.442 834.399 233.442 835.854V837.886C233.442 839.342 233.141 840.678 232.538 841.895C231.936 843.1 231.052 844.072 229.885 844.812C228.731 845.54 227.313 845.904 225.632 845.904C223.938 845.904 222.507 845.54 221.341 844.812C220.174 844.072 219.289 843.1 218.687 841.895C218.085 840.678 217.784 839.342 217.784 837.886ZM222.169 835.854V837.886C222.169 838.965 222.426 839.944 222.94 840.822C223.455 841.701 224.352 842.14 225.632 842.14C226.899 842.14 227.783 841.701 228.285 840.822C228.787 839.944 229.038 838.965 229.038 837.886V835.854C229.038 834.775 228.793 833.796 228.304 832.918C227.827 832.04 226.936 831.601 225.632 831.601C224.377 831.601 223.486 832.04 222.959 832.918C222.432 833.796 222.169 834.775 222.169 835.854ZM198.399 815.83V813.797C198.399 812.342 198.7 811.006 199.303 809.789C199.917 808.572 200.808 807.599 201.975 806.871C203.154 806.144 204.578 805.78 206.247 805.78C207.953 805.78 209.384 806.144 210.538 806.871C211.692 807.599 212.564 808.572 213.154 809.789C213.744 811.006 214.039 812.342 214.039 813.797V815.83C214.039 817.285 213.737 818.621 213.135 819.838C212.545 821.043 211.667 822.015 210.5 822.755C209.346 823.483 207.928 823.847 206.247 823.847C204.541 823.847 203.104 823.483 201.937 822.755C200.783 822.015 199.905 821.043 199.303 819.838C198.7 818.621 198.399 817.285 198.399 815.83ZM202.803 813.797V815.83C202.803 816.909 203.054 817.887 203.556 818.766C204.07 819.644 204.967 820.083 206.247 820.083C207.502 820.083 208.38 819.644 208.882 818.766C209.396 817.887 209.654 816.909 209.654 815.83V813.797C209.654 812.718 209.409 811.74 208.92 810.861C208.43 809.983 207.539 809.544 206.247 809.544C204.992 809.544 204.102 809.983 203.575 810.861C203.06 811.74 202.803 812.718 202.803 813.797ZM200.187 845.113L226.685 806.57H231.183L204.685 845.113H200.187Z" fill="#E4E4E4"/>
<path d="M162.675 956.509C162.369 955.573 161.966 954.735 161.466 953.994C160.975 953.244 160.387 952.605 159.702 952.077C159.026 951.55 158.257 951.147 157.396 950.869C156.535 950.591 155.59 950.452 154.562 950.452C152.877 950.452 151.344 950.887 149.965 951.758C148.585 952.628 147.488 953.911 146.673 955.606C145.858 957.3 145.45 959.379 145.45 961.842C145.45 964.306 145.862 966.385 146.687 968.079C147.511 969.774 148.627 971.057 150.034 971.927C151.442 972.797 153.025 973.233 154.785 973.233C156.415 973.233 157.85 972.885 159.091 972.191C160.341 971.487 161.313 970.496 162.008 969.218C162.712 967.931 163.063 966.417 163.063 964.676L164.119 964.898H155.563V961.842H166.397V964.898C166.397 967.241 165.897 969.279 164.897 971.01C163.906 972.742 162.536 974.085 160.785 975.039C159.044 975.983 157.044 976.455 154.785 976.455C152.266 976.455 150.053 975.863 148.145 974.677C146.247 973.492 144.765 971.807 143.7 969.621C142.644 967.436 142.117 964.843 142.117 961.842C142.117 959.592 142.417 957.569 143.019 955.772C143.631 953.967 144.492 952.429 145.603 951.161C146.714 949.892 148.029 948.92 149.548 948.244C151.067 947.568 152.738 947.23 154.562 947.23C156.063 947.23 157.461 947.457 158.757 947.91C160.063 948.355 161.225 948.989 162.244 949.813C163.272 950.628 164.128 951.605 164.814 952.744C165.499 953.874 165.971 955.129 166.231 956.509H162.675ZM180.52 976.511C178.594 976.511 176.904 976.053 175.45 975.136C174.006 974.219 172.876 972.936 172.061 971.288C171.255 969.64 170.853 967.714 170.853 965.51C170.853 963.287 171.255 961.347 172.061 959.689C172.876 958.032 174.006 956.745 175.45 955.828C176.904 954.911 178.594 954.453 180.52 954.453C182.447 954.453 184.132 954.911 185.577 955.828C187.03 956.745 188.16 958.032 188.966 959.689C189.781 961.347 190.188 963.287 190.188 965.51C190.188 967.714 189.781 969.64 188.966 971.288C188.16 972.936 187.03 974.219 185.577 975.136C184.132 976.053 182.447 976.511 180.52 976.511ZM180.52 973.566C181.984 973.566 183.187 973.191 184.132 972.441C185.077 971.691 185.776 970.705 186.229 969.482C186.683 968.26 186.91 966.936 186.91 965.51C186.91 964.083 186.683 962.755 186.229 961.523C185.776 960.291 185.077 959.296 184.132 958.537C183.187 957.777 181.984 957.398 180.52 957.398C179.057 957.398 177.853 957.777 176.909 958.537C175.964 959.296 175.265 960.291 174.811 961.523C174.358 962.755 174.131 964.083 174.131 965.51C174.131 966.936 174.358 968.26 174.811 969.482C175.265 970.705 175.964 971.691 176.909 972.441C177.853 973.191 179.057 973.566 180.52 973.566ZM198.47 947.619V976.066H195.192V947.619H198.47ZM212.531 976.511C210.753 976.511 209.184 976.062 207.822 975.164C206.461 974.256 205.396 972.978 204.627 971.33C203.859 969.672 203.475 967.714 203.475 965.454C203.475 963.213 203.859 961.268 204.627 959.62C205.396 957.972 206.466 956.698 207.836 955.8C209.207 954.902 210.79 954.453 212.587 954.453C213.976 954.453 215.073 954.684 215.879 955.147C216.694 955.601 217.314 956.12 217.74 956.703C218.175 957.277 218.513 957.749 218.754 958.12H219.032V947.619H222.31V976.066H219.143V972.788H218.754C218.513 973.177 218.171 973.668 217.726 974.261C217.282 974.844 216.647 975.367 215.823 975.83C214.999 976.284 213.902 976.511 212.531 976.511ZM212.976 973.566C214.291 973.566 215.402 973.223 216.309 972.538C217.217 971.844 217.907 970.885 218.379 969.663C218.851 968.431 219.087 967.01 219.087 965.398C219.087 963.806 218.856 962.412 218.393 961.217C217.93 960.014 217.245 959.078 216.337 958.412C215.43 957.736 214.309 957.398 212.976 957.398C211.587 957.398 210.429 957.754 209.503 958.467C208.586 959.171 207.896 960.129 207.433 961.342C206.98 962.546 206.753 963.898 206.753 965.398C206.753 966.917 206.984 968.297 207.447 969.538C207.92 970.769 208.614 971.751 209.531 972.483C210.457 973.205 211.605 973.566 212.976 973.566Z" fill="#E4E4E4"/>
</g>
<g filter="url(#filter1_dd_10064_45783)">
<rect x="399.741" y="711.017" width="312.926" height="315.371" rx="48.1787" fill="#393939"/>
<rect x="400.945" y="712.222" width="310.517" height="312.962" rx="46.9742" stroke="#E4E4E4" stroke-opacity="0.03" stroke-width="2.40893"/>
<rect x="414.196" y="725.471" width="284.254" height="171.948" rx="33.7251" fill="#E4E4E4" fill-opacity="0.1"/>
<rect x="415.4" y="726.675" width="281.845" height="169.539" rx="32.5206" stroke="#E4E4E4" stroke-opacity="0.03" stroke-width="2.40893"/>
<path d="M522.653 791.902V830.445H516.819V797.736H516.593L507.372 803.758V798.188L516.988 791.902H522.653ZM534.139 830.445V826.229L547.181 812.717C548.574 811.249 549.722 809.963 550.625 808.859C551.541 807.742 552.225 806.682 552.677 805.678C553.129 804.674 553.354 803.608 553.354 802.479C553.354 801.199 553.053 800.095 552.451 799.166C551.849 798.225 551.027 797.504 549.986 797.002C548.944 796.488 547.771 796.23 546.466 796.23C545.086 796.23 543.882 796.513 542.853 797.077C541.824 797.642 541.034 798.439 540.482 799.467C539.93 800.496 539.654 801.701 539.654 803.081H534.102C534.102 800.735 534.641 798.683 535.72 796.927C536.799 795.17 538.28 793.809 540.162 792.843C542.044 791.864 544.183 791.375 546.579 791.375C549.001 791.375 551.134 791.858 552.978 792.824C554.835 793.778 556.284 795.082 557.325 796.739C558.367 798.382 558.887 800.239 558.887 802.309C558.887 803.74 558.618 805.138 558.078 806.506C557.551 807.874 556.629 809.398 555.312 811.079C553.994 812.748 552.162 814.774 549.816 817.158L542.157 825.175V825.458H559.508V830.445H534.139ZM587.819 823.218V821.185C587.819 819.73 588.121 818.4 588.723 817.196C589.338 815.979 590.228 815.006 591.395 814.279C592.575 813.538 593.999 813.168 595.667 813.168C597.374 813.168 598.804 813.532 599.958 814.26C601.112 814.987 601.984 815.96 602.574 817.177C603.176 818.394 603.477 819.73 603.477 821.185V823.218C603.477 824.673 603.176 826.01 602.574 827.227C601.972 828.431 601.087 829.403 599.921 830.144C598.766 830.871 597.349 831.235 595.667 831.235C593.973 831.235 592.543 830.871 591.376 830.144C590.21 829.403 589.325 828.431 588.723 827.227C588.121 826.01 587.819 824.673 587.819 823.218ZM592.204 821.185V823.218C592.204 824.297 592.462 825.276 592.976 826.154C593.49 827.032 594.388 827.471 595.667 827.471C596.934 827.471 597.819 827.032 598.321 826.154C598.823 825.276 599.074 824.297 599.074 823.218V821.185C599.074 820.106 598.829 819.128 598.34 818.25C597.863 817.371 596.972 816.932 595.667 816.932C594.413 816.932 593.522 817.371 592.995 818.25C592.468 819.128 592.204 820.106 592.204 821.185ZM568.435 801.161V799.129C568.435 797.673 568.736 796.337 569.338 795.12C569.953 793.903 570.844 792.931 572.011 792.203C573.19 791.475 574.614 791.111 576.283 791.111C577.989 791.111 579.42 791.475 580.574 792.203C581.728 792.931 582.6 793.903 583.19 795.12C583.779 796.337 584.074 797.673 584.074 799.129V801.161C584.074 802.617 583.773 803.953 583.171 805.17C582.581 806.374 581.703 807.347 580.536 808.087C579.382 808.815 577.964 809.178 576.283 809.178C574.577 809.178 573.14 808.815 571.973 808.087C570.819 807.347 569.941 806.374 569.338 805.17C568.736 803.953 568.435 802.617 568.435 801.161ZM572.839 799.129V801.161C572.839 802.24 573.09 803.219 573.592 804.097C574.106 804.975 575.003 805.414 576.283 805.414C577.538 805.414 578.416 804.975 578.918 804.097C579.432 803.219 579.689 802.24 579.689 801.161V799.129C579.689 798.05 579.445 797.071 578.955 796.193C578.466 795.315 577.575 794.875 576.283 794.875C575.028 794.875 574.137 795.315 573.61 796.193C573.096 797.071 572.839 798.05 572.839 799.129ZM570.223 830.445L596.721 791.902H601.219L574.721 830.445H570.223Z" fill="#E4E4E4"/>
<path d="M500.902 955.564C500.736 954.157 500.06 953.064 498.874 952.286C497.689 951.508 496.235 951.119 494.513 951.119C493.253 951.119 492.151 951.323 491.207 951.73C490.272 952.138 489.54 952.698 489.012 953.411C488.494 954.124 488.234 954.935 488.234 955.842C488.234 956.601 488.415 957.254 488.776 957.801C489.146 958.338 489.619 958.787 490.193 959.148C490.767 959.5 491.369 959.792 491.999 960.023C492.628 960.245 493.207 960.426 493.735 960.565L496.624 961.343C497.365 961.537 498.189 961.806 499.097 962.148C500.013 962.491 500.889 962.959 501.722 963.551C502.565 964.135 503.259 964.885 503.806 965.802C504.352 966.718 504.625 967.844 504.625 969.177C504.625 970.714 504.222 972.103 503.417 973.344C502.62 974.585 501.453 975.571 499.916 976.303C498.388 977.034 496.532 977.4 494.346 977.4C492.309 977.4 490.545 977.071 489.054 976.414C487.572 975.756 486.405 974.84 485.553 973.664C484.711 972.488 484.234 971.122 484.123 969.566H487.679C487.771 970.64 488.132 971.529 488.762 972.233C489.401 972.927 490.207 973.446 491.179 973.789C492.161 974.122 493.216 974.289 494.346 974.289C495.661 974.289 496.842 974.076 497.888 973.65C498.935 973.215 499.763 972.613 500.375 971.844C500.986 971.066 501.291 970.159 501.291 969.121C501.291 968.177 501.028 967.408 500.5 966.816C499.972 966.223 499.277 965.741 498.416 965.371C497.555 965.001 496.624 964.676 495.624 964.399L492.124 963.399C489.901 962.76 488.142 961.847 486.845 960.662C485.549 959.477 484.901 957.926 484.901 956.009C484.901 954.416 485.331 953.027 486.192 951.842C487.063 950.647 488.23 949.721 489.693 949.063C491.165 948.397 492.809 948.063 494.624 948.063C496.458 948.063 498.087 948.392 499.513 949.05C500.94 949.698 502.069 950.587 502.903 951.717C503.745 952.846 504.19 954.129 504.236 955.564H500.902ZM517.901 977.289C516.03 977.289 514.419 976.946 513.067 976.261C511.715 975.576 510.673 974.636 509.942 973.441C509.21 972.247 508.844 970.881 508.844 969.344C508.844 968.158 509.094 967.107 509.594 966.191C510.104 965.264 510.803 964.408 511.692 963.621C512.59 962.824 513.623 962.028 514.79 961.232L518.901 958.176C519.707 957.648 520.35 957.083 520.832 956.481C521.323 955.879 521.568 955.092 521.568 954.12C521.568 953.397 521.249 952.698 520.61 952.022C519.98 951.346 519.151 951.008 518.123 951.008C517.401 951.008 516.762 951.193 516.206 951.564C515.66 951.925 515.229 952.388 514.915 952.953C514.609 953.508 514.456 954.083 514.456 954.675C514.456 955.342 514.637 956.018 514.998 956.703C515.368 957.379 515.836 958.074 516.401 958.787C516.975 959.491 517.568 960.213 518.179 960.954L531.236 976.9H527.291L516.512 963.899C515.512 962.695 514.604 961.602 513.789 960.62C512.975 959.639 512.326 958.671 511.845 957.717C511.363 956.763 511.122 955.731 511.122 954.62C511.122 953.342 511.405 952.221 511.97 951.258C512.544 950.286 513.345 949.531 514.373 948.994C515.41 948.448 516.623 948.175 518.012 948.175C519.438 948.175 520.665 948.452 521.693 949.008C522.721 949.554 523.513 950.281 524.068 951.189C524.624 952.087 524.902 953.064 524.902 954.12C524.902 955.481 524.564 956.662 523.888 957.662C523.212 958.662 522.29 959.593 521.124 960.454L515.456 964.676C514.178 965.621 513.313 966.538 512.859 967.427C512.405 968.316 512.178 968.955 512.178 969.344C512.178 970.233 512.41 971.061 512.873 971.83C513.336 972.599 513.989 973.219 514.831 973.691C515.674 974.164 516.66 974.4 517.79 974.4C518.864 974.4 519.911 974.173 520.929 973.719C521.948 973.256 522.869 972.589 523.693 971.719C524.527 970.848 525.184 969.802 525.666 968.58C526.157 967.357 526.402 965.982 526.402 964.454H529.569C529.569 966.343 529.351 967.885 528.916 969.08C528.481 970.274 527.99 971.21 527.444 971.886C526.897 972.562 526.458 973.066 526.124 973.4C526.013 973.539 525.911 973.678 525.819 973.816C525.726 973.955 525.624 974.094 525.513 974.233C524.596 975.261 523.439 976.03 522.04 976.539C520.642 977.039 519.262 977.289 517.901 977.289ZM535.309 976.9V948.452H544.922C547.153 948.452 548.978 948.855 550.394 949.661C551.821 950.457 552.876 951.536 553.562 952.897C554.247 954.259 554.589 955.777 554.589 957.453C554.589 959.13 554.247 960.653 553.562 962.023C552.886 963.394 551.839 964.487 550.422 965.302C549.005 966.107 547.19 966.51 544.977 966.51H538.087V963.454H544.866C546.394 963.454 547.621 963.19 548.547 962.662C549.473 962.134 550.144 961.421 550.561 960.523C550.987 959.616 551.2 958.592 551.2 957.453C551.2 956.314 550.987 955.296 550.561 954.397C550.144 953.499 549.468 952.795 548.533 952.286C547.598 951.768 546.357 951.508 544.81 951.508H538.754V976.9H535.309ZM579.53 977.289C577.9 977.289 576.432 976.965 575.127 976.317C573.821 975.669 572.774 974.78 571.987 973.65C571.2 972.52 570.77 971.233 570.696 969.788H574.029C574.159 971.075 574.742 972.14 575.779 972.983C576.826 973.816 578.076 974.233 579.53 974.233C580.697 974.233 581.734 973.96 582.641 973.414C583.558 972.867 584.276 972.117 584.794 971.163C585.322 970.2 585.586 969.112 585.586 967.899C585.586 966.658 585.313 965.552 584.767 964.579C584.23 963.598 583.489 962.824 582.544 962.26C581.6 961.695 580.521 961.408 579.308 961.398C578.437 961.389 577.544 961.523 576.627 961.801C575.71 962.07 574.955 962.417 574.363 962.843L571.14 962.454L572.862 948.452H587.642V951.508H575.752L574.752 959.898H574.918C575.502 959.435 576.233 959.051 577.113 958.745C577.993 958.44 578.909 958.287 579.863 958.287C581.604 958.287 583.155 958.704 584.517 959.537C585.887 960.361 586.961 961.491 587.739 962.926C588.526 964.362 588.92 966.001 588.92 967.844C588.92 969.659 588.512 971.279 587.698 972.705C586.892 974.122 585.781 975.243 584.364 976.067C582.947 976.882 581.336 977.289 579.53 977.289ZM603.717 977.289C601.624 977.289 599.841 976.72 598.369 975.581C596.897 974.432 595.771 972.77 594.994 970.594C594.216 968.408 593.827 965.769 593.827 962.676C593.827 959.602 594.216 956.976 594.994 954.8C595.781 952.615 596.91 950.948 598.383 949.8C599.865 948.642 601.642 948.063 603.717 948.063C605.791 948.063 607.565 948.642 609.037 949.8C610.519 950.948 611.648 952.615 612.426 954.8C613.213 956.976 613.607 959.602 613.607 962.676C613.607 965.769 613.218 968.408 612.44 970.594C611.662 972.77 610.537 974.432 609.065 975.581C607.592 976.72 605.81 977.289 603.717 977.289ZM603.717 974.233C605.791 974.233 607.402 973.233 608.551 971.233C609.699 969.233 610.273 966.38 610.273 962.676C610.273 960.213 610.009 958.116 609.481 956.384C608.963 954.652 608.213 953.333 607.231 952.425C606.259 951.517 605.087 951.064 603.717 951.064C601.661 951.064 600.054 952.078 598.897 954.106C597.739 956.125 597.16 958.981 597.16 962.676C597.16 965.139 597.42 967.232 597.938 968.955C598.457 970.677 599.202 971.988 600.175 972.886C601.156 973.784 602.337 974.233 603.717 974.233ZM628.164 977.289C626.071 977.289 624.289 976.72 622.816 975.581C621.344 974.432 620.219 972.77 619.441 970.594C618.663 968.408 618.274 965.769 618.274 962.676C618.274 959.602 618.663 956.976 619.441 954.8C620.228 952.615 621.358 950.948 622.83 949.8C624.312 948.642 626.09 948.063 628.164 948.063C630.239 948.063 632.012 948.642 633.484 949.8C634.966 950.948 636.096 952.615 636.874 954.8C637.661 956.976 638.054 959.602 638.054 962.676C638.054 965.769 637.665 968.408 636.887 970.594C636.11 972.77 634.984 974.432 633.512 975.581C632.04 976.72 630.257 977.289 628.164 977.289ZM628.164 974.233C630.239 974.233 631.85 973.233 632.998 971.233C634.146 969.233 634.721 966.38 634.721 962.676C634.721 960.213 634.457 958.116 633.929 956.384C633.41 954.652 632.66 953.333 631.678 952.425C630.706 951.517 629.535 951.064 628.164 951.064C626.108 951.064 624.502 952.078 623.344 954.106C622.187 956.125 621.608 958.981 621.608 962.676C621.608 965.139 621.867 967.232 622.386 968.955C622.904 970.677 623.65 971.988 624.622 972.886C625.604 973.784 626.784 974.233 628.164 974.233Z" fill="#E4E4E4"/>
</g>
<g filter="url(#filter2_dd_10064_45783)">
<rect x="770.481" y="5" width="409.519" height="1021.39" rx="48.1787" fill="url(#paint0_linear_10064_45783)"/>
<rect x="771.686" y="6.20447" width="407.11" height="1018.98" rx="46.9742" stroke="#D1B382" stroke-opacity="0.2" stroke-width="2.40893"/>
<rect x="786.14" y="20.658" width="378.203" height="207.038" rx="32.5206" fill="#D1B382"/>
<rect x="786.14" y="20.658" width="378.203" height="207.038" rx="32.5206" stroke="#D9C097" stroke-width="2.40893"/>
<path d="M908.677 137.843V109.006H915.22V137.843H908.677ZM897.53 126.695V120.153H926.367V126.695H897.53ZM951.114 145.26C949.073 145.246 947.079 144.892 945.135 144.198C943.19 143.489 941.44 142.343 939.884 140.76C938.328 139.162 937.092 137.044 936.175 134.405C935.258 131.752 934.807 128.466 934.821 124.549C934.821 120.896 935.21 117.639 935.988 114.777C936.766 111.916 937.884 109.499 939.342 107.526C940.801 105.54 942.558 104.026 944.614 102.984C946.683 101.942 948.996 101.422 951.552 101.422C954.233 101.422 956.608 101.949 958.678 103.005C960.761 104.061 962.442 105.505 963.72 107.339C964.998 109.159 965.79 111.214 966.095 113.506H958.49C958.101 111.867 957.303 110.562 956.094 109.589C954.9 108.603 953.386 108.11 951.552 108.11C948.593 108.11 946.315 109.395 944.718 111.965C943.134 114.534 942.336 118.062 942.322 122.549H942.613C943.294 121.327 944.176 120.278 945.26 119.403C946.343 118.528 947.565 117.854 948.927 117.382C950.302 116.896 951.753 116.653 953.281 116.653C955.782 116.653 958.025 117.25 960.011 118.444C962.012 119.639 963.595 121.285 964.762 123.383C965.929 125.466 966.505 127.855 966.491 130.55C966.505 133.356 965.866 135.877 964.574 138.113C963.283 140.336 961.484 142.086 959.178 143.364C956.872 144.642 954.184 145.274 951.114 145.26ZM951.073 139.009C952.587 139.009 953.941 138.641 955.136 137.905C956.33 137.169 957.275 136.176 957.969 134.926C958.664 133.675 959.004 132.273 958.99 130.717C959.004 129.189 958.671 127.807 957.99 126.57C957.324 125.334 956.4 124.355 955.219 123.633C954.038 122.91 952.691 122.549 951.177 122.549C950.052 122.549 949.003 122.764 948.031 123.195C947.058 123.626 946.211 124.223 945.489 124.987C944.766 125.737 944.197 126.612 943.78 127.612C943.377 128.598 943.169 129.654 943.155 130.779C943.169 132.266 943.516 133.634 944.197 134.884C944.878 136.134 945.815 137.134 947.01 137.884C948.204 138.634 949.559 139.009 951.073 139.009ZM989.161 145.26C987.119 145.246 985.125 144.892 983.181 144.198C981.236 143.489 979.486 142.343 977.93 140.76C976.374 139.162 975.138 137.044 974.221 134.405C973.305 131.752 972.853 128.466 972.867 124.549C972.867 120.896 973.256 117.639 974.034 114.777C974.812 111.916 975.93 109.499 977.388 107.526C978.847 105.54 980.604 104.026 982.66 102.984C984.73 101.942 987.042 101.422 989.598 101.422C992.279 101.422 994.654 101.949 996.724 103.005C998.808 104.061 1000.49 105.505 1001.77 107.339C1003.04 109.159 1003.84 111.214 1004.14 113.506H996.537C996.148 111.867 995.349 110.562 994.14 109.589C992.946 108.603 991.432 108.11 989.598 108.11C986.64 108.11 984.361 109.395 982.764 111.965C981.181 114.534 980.382 118.062 980.368 122.549H980.66C981.34 121.327 982.222 120.278 983.306 119.403C984.389 118.528 985.612 117.854 986.973 117.382C988.348 116.896 989.8 116.653 991.328 116.653C993.828 116.653 996.071 117.25 998.058 118.444C1000.06 119.639 1001.64 121.285 1002.81 123.383C1003.97 125.466 1004.55 127.855 1004.54 130.55C1004.55 133.356 1003.91 135.877 1002.62 138.113C1001.33 140.336 999.53 142.086 997.224 143.364C994.918 144.642 992.23 145.274 989.161 145.26ZM989.119 139.009C990.633 139.009 991.987 138.641 993.182 137.905C994.377 137.169 995.321 136.176 996.016 134.926C996.71 133.675 997.05 132.273 997.037 130.717C997.05 129.189 996.717 127.807 996.036 126.57C995.37 125.334 994.446 124.355 993.265 123.633C992.085 122.91 990.737 122.549 989.223 122.549C988.098 122.549 987.049 122.764 986.077 123.195C985.105 123.626 984.257 124.223 983.535 124.987C982.813 125.737 982.243 126.612 981.826 127.612C981.424 128.598 981.215 129.654 981.201 130.779C981.215 132.266 981.563 133.634 982.243 134.884C982.924 136.134 983.861 137.134 985.056 137.884C986.251 138.634 987.605 139.009 989.119 139.009ZM1034.4 136.676V134.426C1034.4 132.773 1034.74 131.252 1035.44 129.862C1036.15 128.473 1037.17 127.355 1038.52 126.508C1039.87 125.661 1041.5 125.237 1043.42 125.237C1045.39 125.237 1047.04 125.661 1048.38 126.508C1049.71 127.341 1050.72 128.453 1051.4 129.842C1052.09 131.231 1052.44 132.759 1052.44 134.426V136.676C1052.44 138.329 1052.09 139.85 1051.4 141.239C1050.7 142.628 1049.68 143.746 1048.33 144.593C1047 145.441 1045.36 145.864 1043.42 145.864C1041.47 145.864 1039.83 145.441 1038.48 144.593C1037.13 143.746 1036.11 142.628 1035.42 141.239C1034.74 139.85 1034.4 138.329 1034.4 136.676ZM1039.83 134.426V136.676C1039.83 137.773 1040.1 138.78 1040.63 139.697C1041.15 140.614 1042.08 141.072 1043.42 141.072C1044.76 141.072 1045.69 140.621 1046.19 139.718C1046.7 138.801 1046.96 137.787 1046.96 136.676V134.426C1046.96 133.314 1046.72 132.3 1046.23 131.384C1045.74 130.453 1044.81 129.988 1043.42 129.988C1042.11 129.988 1041.19 130.453 1040.65 131.384C1040.1 132.3 1039.83 133.314 1039.83 134.426ZM1012.71 112.256V110.006C1012.71 108.339 1013.06 106.811 1013.77 105.422C1014.48 104.033 1015.5 102.922 1016.85 102.088C1018.2 101.241 1019.83 100.817 1021.75 100.817C1023.71 100.817 1025.35 101.241 1026.69 102.088C1028.03 102.922 1029.05 104.033 1029.73 105.422C1030.41 106.811 1030.75 108.339 1030.75 110.006V112.256C1030.75 113.923 1030.4 115.451 1029.71 116.84C1029.03 118.215 1028.01 119.32 1026.67 120.153C1025.32 120.986 1023.68 121.403 1021.75 121.403C1019.79 121.403 1018.14 120.986 1016.79 120.153C1015.46 119.32 1014.44 118.208 1013.75 116.819C1013.05 115.43 1012.71 113.909 1012.71 112.256ZM1018.18 110.006V112.256C1018.18 113.367 1018.44 114.381 1018.96 115.298C1019.48 116.201 1020.41 116.653 1021.75 116.653C1023.08 116.653 1024 116.201 1024.5 115.298C1025.01 114.381 1025.27 113.367 1025.27 112.256V110.006C1025.27 108.895 1025.03 107.881 1024.54 106.964C1024.05 106.033 1023.12 105.568 1021.75 105.568C1020.43 105.568 1019.5 106.033 1018.98 106.964C1018.45 107.895 1018.18 108.909 1018.18 110.006ZM1015.08 144.677L1044.42 102.005H1049.63L1020.29 144.677H1015.08Z" fill="#0A0A0A"/>
<path d="M914.997 975.555V947.107H924.942C926.924 947.107 928.558 947.45 929.846 948.135C931.133 948.811 932.091 949.723 932.721 950.871C933.351 952.01 933.665 953.274 933.665 954.664C933.665 955.886 933.448 956.895 933.013 957.692C932.587 958.488 932.022 959.118 931.318 959.581C930.623 960.044 929.869 960.386 929.054 960.609V960.887C929.924 960.942 930.799 961.248 931.679 961.803C932.559 962.359 933.295 963.155 933.888 964.192C934.48 965.23 934.777 966.498 934.777 967.998C934.777 969.425 934.453 970.707 933.804 971.846C933.156 972.985 932.133 973.888 930.735 974.555C929.336 975.222 927.517 975.555 925.276 975.555H914.997ZM918.441 972.499H925.276C927.526 972.499 929.123 972.064 930.068 971.193C931.022 970.314 931.499 969.249 931.499 967.998C931.499 967.035 931.253 966.146 930.762 965.331C930.272 964.507 929.572 963.85 928.665 963.359C927.757 962.859 926.683 962.609 925.442 962.609H918.441V972.499ZM918.441 959.609H924.831C925.868 959.609 926.804 959.405 927.637 958.997C928.48 958.59 929.146 958.016 929.637 957.275C930.137 956.534 930.387 955.664 930.387 954.664C930.387 953.413 929.952 952.353 929.082 951.483C928.211 950.603 926.831 950.163 924.942 950.163H918.441V959.609ZM939.993 975.555V954.219H943.271V975.555H939.993ZM941.659 950.663C941.021 950.663 940.47 950.445 940.007 950.01C939.553 949.575 939.326 949.052 939.326 948.441C939.326 947.829 939.553 947.306 940.007 946.871C940.47 946.436 941.021 946.218 941.659 946.218C942.298 946.218 942.845 946.436 943.299 946.871C943.762 947.306 943.993 947.829 943.993 948.441C943.993 949.052 943.762 949.575 943.299 950.01C942.845 950.445 942.298 950.663 941.659 950.663ZM958.554 954.219V956.997H947.497V954.219H958.554ZM950.72 949.107H953.998V969.443C953.998 970.369 954.132 971.064 954.401 971.527C954.678 971.98 955.03 972.286 955.456 972.443C955.892 972.592 956.35 972.666 956.831 972.666C957.193 972.666 957.489 972.647 957.72 972.61C957.952 972.564 958.137 972.527 958.276 972.499L958.943 975.444C958.721 975.527 958.41 975.61 958.012 975.694C957.614 975.786 957.109 975.833 956.498 975.833C955.572 975.833 954.665 975.634 953.776 975.235C952.896 974.837 952.164 974.231 951.581 973.416C951.007 972.601 950.72 971.573 950.72 970.332V949.107ZM971.924 975.999C969.923 975.999 968.201 975.527 966.756 974.583C965.312 973.638 964.2 972.337 963.422 970.679C962.645 969.022 962.256 967.128 962.256 964.998C962.256 962.831 962.654 960.919 963.45 959.261C964.256 957.594 965.376 956.293 966.812 955.358C968.256 954.414 969.942 953.941 971.868 953.941C973.368 953.941 974.72 954.219 975.924 954.775C977.128 955.33 978.114 956.108 978.883 957.108C979.651 958.108 980.128 959.275 980.313 960.609H977.035C976.785 959.636 976.23 958.775 975.368 958.025C974.516 957.266 973.368 956.886 971.924 956.886C970.646 956.886 969.525 957.219 968.562 957.886C967.608 958.544 966.863 959.474 966.326 960.678C965.798 961.873 965.534 963.276 965.534 964.887C965.534 966.535 965.793 967.971 966.312 969.193C966.84 970.415 967.58 971.365 968.534 972.041C969.497 972.717 970.627 973.055 971.924 973.055C972.775 973.055 973.549 972.906 974.243 972.61C974.938 972.314 975.526 971.888 976.007 971.332C976.489 970.777 976.832 970.11 977.035 969.332H980.313C980.128 970.591 979.67 971.726 978.938 972.735C978.216 973.735 977.257 974.532 976.063 975.124C974.878 975.708 973.498 975.999 971.924 975.999ZM993.773 975.999C991.847 975.999 990.157 975.541 988.703 974.624C987.259 973.707 986.129 972.425 985.314 970.777C984.508 969.128 984.106 967.202 984.106 964.998C984.106 962.776 984.508 960.836 985.314 959.178C986.129 957.52 987.259 956.233 988.703 955.316C990.157 954.4 991.847 953.941 993.773 953.941C995.699 953.941 997.385 954.4 998.829 955.316C1000.28 956.233 1001.41 957.52 1002.22 959.178C1003.03 960.836 1003.44 962.776 1003.44 964.998C1003.44 967.202 1003.03 969.128 1002.22 970.777C1001.41 972.425 1000.28 973.707 998.829 974.624C997.385 975.541 995.699 975.999 993.773 975.999ZM993.773 973.055C995.236 973.055 996.44 972.68 997.385 971.929C998.329 971.179 999.029 970.193 999.482 968.971C999.936 967.748 1000.16 966.424 1000.16 964.998C1000.16 963.572 999.936 962.243 999.482 961.012C999.029 959.78 998.329 958.784 997.385 958.025C996.44 957.266 995.236 956.886 993.773 956.886C992.31 956.886 991.106 957.266 990.162 958.025C989.217 958.784 988.518 959.78 988.064 961.012C987.611 962.243 987.384 963.572 987.384 964.998C987.384 966.424 987.611 967.748 988.064 968.971C988.518 970.193 989.217 971.179 990.162 971.929C991.106 972.68 992.31 973.055 993.773 973.055ZM1008.45 975.555V954.219H1011.72V975.555H1008.45ZM1010.11 950.663C1009.47 950.663 1008.92 950.445 1008.46 950.01C1008.01 949.575 1007.78 949.052 1007.78 948.441C1007.78 947.829 1008.01 947.306 1008.46 946.871C1008.92 946.436 1009.47 946.218 1010.11 946.218C1010.75 946.218 1011.3 946.436 1011.75 946.871C1012.21 947.306 1012.45 947.829 1012.45 948.441C1012.45 949.052 1012.21 949.575 1011.75 950.01C1011.3 950.445 1010.75 950.663 1010.11 950.663ZM1021.01 962.72V975.555H1017.73V954.219H1020.89V957.553H1021.17C1021.67 956.469 1022.43 955.599 1023.45 954.941C1024.47 954.275 1025.78 953.941 1027.4 953.941C1028.84 953.941 1030.1 954.238 1031.19 954.83C1032.27 955.414 1033.11 956.303 1033.72 957.497C1034.32 958.683 1034.62 960.183 1034.62 961.998V975.555H1031.34V962.22C1031.34 960.544 1030.91 959.238 1030.03 958.303C1029.16 957.358 1027.97 956.886 1026.45 956.886C1025.4 956.886 1024.47 957.113 1023.64 957.567C1022.83 958.02 1022.19 958.683 1021.71 959.553C1021.24 960.423 1021.01 961.479 1021.01 962.72Z" fill="#E4E4E4"/>
</g>
<path d="M269.862 1105.28H263.278V1083.95H270.154C272.224 1083.95 273.995 1084.37 275.467 1085.23C276.94 1086.08 278.068 1087.29 278.853 1088.88C279.638 1090.47 280.03 1092.36 280.03 1094.57C280.03 1096.8 279.634 1098.71 278.843 1100.31C278.051 1101.91 276.898 1103.14 275.384 1104C273.87 1104.86 272.029 1105.28 269.862 1105.28ZM265.862 1102.99H269.696C271.46 1102.99 272.922 1102.65 274.082 1101.97C275.242 1101.29 276.106 1100.32 276.676 1099.06C277.245 1097.81 277.53 1096.31 277.53 1094.57C277.53 1092.85 277.249 1091.37 276.686 1090.12C276.124 1088.87 275.283 1087.92 274.165 1087.25C273.047 1086.58 271.654 1086.24 269.987 1086.24H265.862V1102.99ZM288.74 1105.66C287.726 1105.66 286.805 1105.47 285.979 1105.08C285.152 1104.7 284.496 1104.14 284.01 1103.41C283.524 1102.67 283.281 1101.78 283.281 1100.74C283.281 1099.82 283.461 1099.08 283.822 1098.51C284.184 1097.93 284.666 1097.48 285.271 1097.16C285.875 1096.83 286.542 1096.59 287.271 1096.43C288.007 1096.26 288.747 1096.13 289.49 1096.03C290.462 1095.91 291.25 1095.81 291.855 1095.75C292.466 1095.68 292.91 1095.57 293.188 1095.41C293.473 1095.25 293.615 1094.97 293.615 1094.57V1094.49C293.615 1093.46 293.334 1092.66 292.771 1092.09C292.216 1091.52 291.372 1091.24 290.24 1091.24C289.066 1091.24 288.146 1091.5 287.479 1092.01C286.812 1092.52 286.344 1093.07 286.073 1093.66L283.739 1092.82C284.156 1091.85 284.711 1091.09 285.406 1090.55C286.107 1090 286.871 1089.62 287.698 1089.41C288.531 1089.18 289.351 1089.07 290.157 1089.07C290.67 1089.07 291.261 1089.13 291.928 1089.26C292.601 1089.38 293.251 1089.62 293.876 1090C294.508 1090.37 295.032 1090.94 295.449 1091.7C295.866 1092.45 296.074 1093.47 296.074 1094.74V1105.28H293.615V1103.12H293.49C293.324 1103.46 293.046 1103.83 292.657 1104.23C292.268 1104.63 291.75 1104.96 291.105 1105.24C290.459 1105.52 289.67 1105.66 288.74 1105.66ZM289.115 1103.45C290.087 1103.45 290.907 1103.26 291.573 1102.88C292.247 1102.49 292.754 1102 293.094 1101.4C293.442 1100.79 293.615 1100.16 293.615 1099.49V1097.24C293.511 1097.37 293.282 1097.48 292.928 1097.58C292.58 1097.68 292.178 1097.77 291.719 1097.84C291.268 1097.91 290.827 1097.98 290.396 1098.03C289.972 1098.08 289.629 1098.12 289.365 1098.16C288.726 1098.24 288.129 1098.38 287.573 1098.56C287.024 1098.74 286.58 1099.02 286.239 1099.39C285.906 1099.75 285.739 1100.24 285.739 1100.87C285.739 1101.72 286.055 1102.37 286.687 1102.8C287.326 1103.23 288.135 1103.45 289.115 1103.45ZM307.521 1089.28V1091.36H299.228V1089.28H307.521ZM301.645 1085.45H304.104V1100.7C304.104 1101.39 304.204 1101.91 304.406 1102.26C304.614 1102.6 304.878 1102.83 305.197 1102.95C305.524 1103.06 305.868 1103.12 306.229 1103.12C306.5 1103.12 306.722 1103.1 306.896 1103.07C307.069 1103.04 307.208 1103.01 307.312 1102.99L307.812 1105.2C307.646 1105.26 307.413 1105.32 307.114 1105.39C306.816 1105.46 306.437 1105.49 305.979 1105.49C305.284 1105.49 304.604 1105.34 303.937 1105.04C303.277 1104.74 302.728 1104.29 302.291 1103.68C301.86 1103.07 301.645 1102.3 301.645 1101.37V1085.45ZM315.928 1105.66C314.914 1105.66 313.994 1105.47 313.167 1105.08C312.341 1104.7 311.684 1104.14 311.198 1103.41C310.712 1102.67 310.469 1101.78 310.469 1100.74C310.469 1099.82 310.649 1099.08 311.011 1098.51C311.372 1097.93 311.854 1097.48 312.459 1097.16C313.063 1096.83 313.73 1096.59 314.459 1096.43C315.195 1096.26 315.935 1096.13 316.678 1096.03C317.65 1095.91 318.439 1095.81 319.043 1095.75C319.654 1095.68 320.098 1095.57 320.376 1095.41C320.661 1095.25 320.803 1094.97 320.803 1094.57V1094.49C320.803 1093.46 320.522 1092.66 319.96 1092.09C319.404 1091.52 318.56 1091.24 317.428 1091.24C316.254 1091.24 315.334 1091.5 314.667 1092.01C314.001 1092.52 313.532 1093.07 313.261 1093.66L310.927 1092.82C311.344 1091.85 311.9 1091.09 312.594 1090.55C313.296 1090 314.06 1089.62 314.886 1089.41C315.719 1089.18 316.539 1089.07 317.345 1089.07C317.859 1089.07 318.449 1089.13 319.116 1089.26C319.789 1089.38 320.439 1089.62 321.064 1090C321.696 1090.37 322.22 1090.94 322.637 1091.7C323.054 1092.45 323.262 1093.47 323.262 1094.74V1105.28H320.803V1103.12H320.678C320.512 1103.46 320.234 1103.83 319.845 1104.23C319.456 1104.63 318.939 1104.96 318.293 1105.24C317.647 1105.52 316.859 1105.66 315.928 1105.66ZM316.303 1103.45C317.275 1103.45 318.095 1103.26 318.762 1102.88C319.435 1102.49 319.942 1102 320.283 1101.4C320.63 1100.79 320.803 1100.16 320.803 1099.49V1097.24C320.699 1097.37 320.47 1097.48 320.116 1097.58C319.769 1097.68 319.366 1097.77 318.907 1097.84C318.456 1097.91 318.015 1097.98 317.584 1098.03C317.161 1098.08 316.817 1098.12 316.553 1098.16C315.914 1098.24 315.317 1098.38 314.761 1098.56C314.212 1098.74 313.768 1099.02 313.428 1099.39C313.094 1099.75 312.927 1100.24 312.927 1100.87C312.927 1101.72 313.244 1102.37 313.876 1102.8C314.514 1103.23 315.324 1103.45 316.303 1103.45ZM347.335 1092.86L345.127 1093.49C344.988 1093.12 344.783 1092.76 344.512 1092.42C344.248 1092.06 343.887 1091.77 343.429 1091.54C342.97 1091.31 342.383 1091.2 341.668 1091.2C340.689 1091.2 339.873 1091.42 339.22 1091.87C338.574 1092.32 338.251 1092.89 338.251 1093.57C338.251 1094.18 338.473 1094.67 338.918 1095.02C339.362 1095.38 340.057 1095.67 341.001 1095.91L343.376 1096.49C344.807 1096.84 345.873 1097.37 346.575 1098.08C347.276 1098.79 347.627 1099.71 347.627 1100.82C347.627 1101.74 347.363 1102.56 346.835 1103.28C346.314 1104 345.585 1104.57 344.647 1104.99C343.71 1105.41 342.619 1105.62 341.376 1105.62C339.744 1105.62 338.393 1105.26 337.324 1104.55C336.254 1103.85 335.577 1102.81 335.292 1101.45L337.626 1100.87C337.848 1101.73 338.268 1102.37 338.886 1102.8C339.511 1103.23 340.327 1103.45 341.335 1103.45C342.48 1103.45 343.39 1103.21 344.064 1102.72C344.745 1102.23 345.085 1101.64 345.085 1100.95C345.085 1100.39 344.89 1099.93 344.502 1099.55C344.113 1099.17 343.515 1098.89 342.71 1098.7L340.043 1098.07C338.577 1097.73 337.501 1097.19 336.813 1096.46C336.133 1095.72 335.792 1094.8 335.792 1093.7C335.792 1092.8 336.046 1092 336.553 1091.3C337.067 1090.61 337.765 1090.06 338.647 1089.67C339.536 1089.27 340.543 1089.07 341.668 1089.07C343.251 1089.07 344.495 1089.42 345.397 1090.11C346.307 1090.81 346.953 1091.73 347.335 1092.86ZM357.829 1105.62C356.384 1105.62 355.117 1105.27 354.026 1104.58C352.943 1103.9 352.095 1102.94 351.484 1101.7C350.88 1100.46 350.578 1099.02 350.578 1097.37C350.578 1095.7 350.88 1094.24 351.484 1093C352.095 1091.76 352.943 1090.79 354.026 1090.1C355.117 1089.42 356.384 1089.07 357.829 1089.07C359.273 1089.07 360.537 1089.42 361.621 1090.1C362.711 1090.79 363.559 1091.76 364.163 1093C364.774 1094.24 365.08 1095.7 365.08 1097.37C365.08 1099.02 364.774 1100.46 364.163 1101.7C363.559 1102.94 362.711 1103.9 361.621 1104.58C360.537 1105.27 359.273 1105.62 357.829 1105.62ZM357.829 1103.41C358.926 1103.41 359.829 1103.13 360.537 1102.56C361.246 1102 361.77 1101.26 362.11 1100.34C362.451 1099.43 362.621 1098.43 362.621 1097.37C362.621 1096.3 362.451 1095.3 362.11 1094.38C361.77 1093.45 361.246 1092.7 360.537 1092.14C359.829 1091.57 358.926 1091.28 357.829 1091.28C356.731 1091.28 355.828 1091.57 355.12 1092.14C354.412 1092.7 353.887 1093.45 353.547 1094.38C353.207 1095.3 353.036 1096.3 353.036 1097.37C353.036 1098.43 353.207 1099.43 353.547 1100.34C353.887 1101.26 354.412 1102 355.12 1102.56C355.828 1103.13 356.731 1103.41 357.829 1103.41ZM378.917 1098.74V1089.28H381.376V1105.28H378.917V1102.57H378.75C378.375 1103.39 377.792 1104.08 377 1104.65C376.208 1105.21 375.208 1105.49 374 1105.49C373 1105.49 372.111 1105.27 371.333 1104.83C370.555 1104.39 369.944 1103.72 369.499 1102.83C369.055 1101.94 368.833 1100.81 368.833 1099.45V1089.28H371.291V1099.28C371.291 1100.45 371.618 1101.38 372.271 1102.07C372.93 1102.77 373.771 1103.12 374.792 1103.12C375.403 1103.12 376.024 1102.96 376.656 1102.65C377.295 1102.33 377.83 1101.86 378.261 1101.21C378.698 1100.56 378.917 1099.74 378.917 1098.74ZM385.879 1105.28V1089.28H388.254V1091.7H388.421C388.713 1090.91 389.24 1090.26 390.004 1089.77C390.768 1089.28 391.63 1089.03 392.588 1089.03C392.769 1089.03 392.994 1089.03 393.265 1089.04C393.536 1089.05 393.741 1089.06 393.88 1089.07V1091.57C393.797 1091.55 393.606 1091.52 393.307 1091.48C393.015 1091.43 392.706 1091.41 392.38 1091.41C391.602 1091.41 390.907 1091.57 390.296 1091.9C389.692 1092.22 389.213 1092.66 388.858 1093.23C388.511 1093.79 388.338 1094.43 388.338 1095.16V1105.28H385.879ZM402.808 1105.62C401.308 1105.62 400.016 1105.26 398.933 1104.55C397.849 1103.85 397.016 1102.87 396.432 1101.63C395.849 1100.38 395.557 1098.96 395.557 1097.37C395.557 1095.74 395.856 1094.31 396.453 1093.06C397.057 1091.81 397.898 1090.84 398.974 1090.14C400.058 1089.43 401.322 1089.07 402.766 1089.07C403.891 1089.07 404.905 1089.28 405.808 1089.7C406.711 1090.11 407.451 1090.7 408.027 1091.45C408.604 1092.2 408.962 1093.07 409.1 1094.07H406.642C406.454 1093.34 406.038 1092.7 405.392 1092.14C404.753 1091.57 403.891 1091.28 402.808 1091.28C401.85 1091.28 401.009 1091.53 400.287 1092.03C399.571 1092.52 399.012 1093.22 398.61 1094.13C398.214 1095.02 398.016 1096.07 398.016 1097.28C398.016 1098.52 398.21 1099.59 398.599 1100.51C398.995 1101.43 399.551 1102.14 400.266 1102.65C400.988 1103.15 401.836 1103.41 402.808 1103.41C403.447 1103.41 404.027 1103.3 404.548 1103.07C405.069 1102.85 405.51 1102.53 405.871 1102.12C406.232 1101.7 406.489 1101.2 406.642 1100.62H409.1C408.962 1101.56 408.618 1102.41 408.069 1103.17C407.527 1103.92 406.808 1104.52 405.913 1104.96C405.024 1105.4 403.989 1105.62 402.808 1105.62ZM419.404 1105.62C417.862 1105.62 416.532 1105.28 415.414 1104.6C414.302 1103.91 413.445 1102.95 412.84 1101.72C412.243 1100.48 411.945 1099.05 411.945 1097.41C411.945 1095.77 412.243 1094.32 412.84 1093.07C413.445 1091.82 414.285 1090.84 415.362 1090.14C416.445 1089.43 417.709 1089.07 419.154 1089.07C419.987 1089.07 420.81 1089.21 421.623 1089.49C422.435 1089.77 423.175 1090.22 423.842 1090.84C424.509 1091.46 425.04 1092.28 425.436 1093.3C425.832 1094.32 426.03 1095.58 426.03 1097.07V1098.12H413.695V1095.99H423.529C423.529 1095.09 423.349 1094.28 422.987 1093.57C422.633 1092.86 422.126 1092.31 421.466 1091.9C420.814 1091.49 420.043 1091.28 419.154 1091.28C418.174 1091.28 417.327 1091.52 416.612 1092.01C415.903 1092.49 415.358 1093.11 414.976 1093.89C414.594 1094.66 414.403 1095.48 414.403 1096.36V1097.78C414.403 1098.99 414.611 1100.01 415.028 1100.86C415.452 1101.69 416.039 1102.32 416.789 1102.76C417.539 1103.19 418.411 1103.41 419.404 1103.41C420.05 1103.41 420.633 1103.32 421.154 1103.14C421.682 1102.95 422.137 1102.67 422.519 1102.3C422.901 1101.93 423.196 1101.46 423.404 1100.91L425.779 1101.57C425.529 1102.38 425.109 1103.09 424.519 1103.7C423.929 1104.3 423.199 1104.78 422.331 1105.12C421.463 1105.45 420.487 1105.62 419.404 1105.62ZM435.812 1105.62C434.478 1105.62 433.301 1105.28 432.28 1104.61C431.259 1103.92 430.461 1102.97 429.884 1101.73C429.308 1100.49 429.019 1099.02 429.019 1097.32C429.019 1095.64 429.308 1094.18 429.884 1092.95C430.461 1091.71 431.263 1090.76 432.291 1090.08C433.319 1089.41 434.506 1089.07 435.854 1089.07C436.895 1089.07 437.718 1089.25 438.323 1089.59C438.934 1089.93 439.399 1090.32 439.719 1090.76C440.045 1091.19 440.299 1091.54 440.479 1091.82H440.688V1083.95H443.146V1105.28H440.771V1102.82H440.479C440.299 1103.12 440.042 1103.48 439.708 1103.93C439.375 1104.37 438.899 1104.76 438.281 1105.11C437.663 1105.45 436.84 1105.62 435.812 1105.62ZM436.145 1103.41C437.132 1103.41 437.965 1103.15 438.646 1102.64C439.326 1102.12 439.844 1101.4 440.198 1100.48C440.552 1099.56 440.729 1098.49 440.729 1097.28C440.729 1096.09 440.556 1095.04 440.208 1094.15C439.861 1093.24 439.347 1092.54 438.666 1092.04C437.986 1091.53 437.145 1091.28 436.145 1091.28C435.104 1091.28 434.235 1091.55 433.541 1092.08C432.853 1092.61 432.336 1093.33 431.989 1094.24C431.648 1095.14 431.478 1096.16 431.478 1097.28C431.478 1098.42 431.652 1099.46 431.999 1100.39C432.353 1101.31 432.874 1102.05 433.562 1102.59C434.256 1103.14 435.117 1103.41 436.145 1103.41ZM464.742 1083.95H467.326V1099.2C467.326 1100.56 467.076 1101.72 466.576 1102.67C466.076 1103.62 465.371 1104.34 464.461 1104.83C463.551 1105.33 462.478 1105.57 461.242 1105.57C460.075 1105.57 459.037 1105.36 458.127 1104.94C457.217 1104.51 456.502 1103.9 455.981 1103.11C455.46 1102.31 455.2 1101.37 455.2 1100.28H457.742C457.742 1100.89 457.891 1101.41 458.19 1101.87C458.495 1102.31 458.912 1102.66 459.44 1102.91C459.968 1103.16 460.568 1103.28 461.242 1103.28C461.985 1103.28 462.617 1103.13 463.138 1102.81C463.659 1102.5 464.055 1102.04 464.326 1101.44C464.604 1100.83 464.742 1100.08 464.742 1099.2V1083.95ZM476.879 1105.66C475.865 1105.66 474.945 1105.47 474.119 1105.08C473.292 1104.7 472.636 1104.14 472.15 1103.41C471.663 1102.67 471.42 1101.78 471.42 1100.74C471.42 1099.82 471.601 1099.08 471.962 1098.51C472.323 1097.93 472.806 1097.48 473.41 1097.16C474.014 1096.83 474.681 1096.59 475.41 1096.43C476.147 1096.26 476.886 1096.13 477.629 1096.03C478.602 1095.91 479.39 1095.81 479.994 1095.75C480.605 1095.68 481.05 1095.57 481.328 1095.41C481.613 1095.25 481.755 1094.97 481.755 1094.57V1094.49C481.755 1093.46 481.474 1092.66 480.911 1092.09C480.355 1091.52 479.512 1091.24 478.38 1091.24C477.206 1091.24 476.286 1091.5 475.619 1092.01C474.952 1092.52 474.483 1093.07 474.212 1093.66L471.879 1092.82C472.295 1091.85 472.851 1091.09 473.546 1090.55C474.247 1090 475.011 1089.62 475.838 1089.41C476.671 1089.18 477.491 1089.07 478.296 1089.07C478.81 1089.07 479.4 1089.13 480.067 1089.26C480.741 1089.38 481.39 1089.62 482.015 1090C482.647 1090.37 483.172 1090.94 483.588 1091.7C484.005 1092.45 484.214 1093.47 484.214 1094.74V1105.28H481.755V1103.12H481.63C481.463 1103.46 481.185 1103.83 480.796 1104.23C480.408 1104.63 479.89 1104.96 479.244 1105.24C478.598 1105.52 477.81 1105.66 476.879 1105.66ZM477.254 1103.45C478.227 1103.45 479.046 1103.26 479.713 1102.88C480.387 1102.49 480.894 1102 481.234 1101.4C481.581 1100.79 481.755 1100.16 481.755 1099.49V1097.24C481.651 1097.37 481.422 1097.48 481.067 1097.58C480.72 1097.68 480.317 1097.77 479.859 1097.84C479.407 1097.91 478.966 1097.98 478.536 1098.03C478.112 1098.08 477.768 1098.12 477.504 1098.16C476.865 1098.24 476.268 1098.38 475.713 1098.56C475.164 1098.74 474.719 1099.02 474.379 1099.39C474.046 1099.75 473.879 1100.24 473.879 1100.87C473.879 1101.72 474.195 1102.37 474.827 1102.8C475.466 1103.23 476.275 1103.45 477.254 1103.45ZM491.16 1095.66V1105.28H488.701V1089.28H491.076V1091.78H491.285C491.66 1090.97 492.229 1090.32 492.993 1089.82C493.757 1089.32 494.743 1089.07 495.952 1089.07C497.035 1089.07 497.983 1089.29 498.796 1089.74C499.609 1090.18 500.241 1090.84 500.692 1091.74C501.143 1092.63 501.369 1093.75 501.369 1095.11V1105.28H498.911V1095.28C498.911 1094.02 498.584 1093.05 497.931 1092.34C497.278 1091.64 496.383 1091.28 495.243 1091.28C494.459 1091.28 493.757 1091.45 493.139 1091.79C492.528 1092.13 492.045 1092.63 491.691 1093.28C491.337 1093.93 491.16 1094.73 491.16 1095.66ZM515.946 1098.74V1089.28H518.405V1105.28H515.946V1102.57H515.78C515.405 1103.39 514.821 1104.08 514.03 1104.65C513.238 1105.21 512.238 1105.49 511.029 1105.49C510.029 1105.49 509.14 1105.27 508.362 1104.83C507.584 1104.39 506.973 1103.72 506.529 1102.83C506.084 1101.94 505.862 1100.81 505.862 1099.45V1089.28H508.321V1099.28C508.321 1100.45 508.647 1101.38 509.3 1102.07C509.96 1102.77 510.8 1103.12 511.821 1103.12C512.432 1103.12 513.054 1102.96 513.686 1102.65C514.325 1102.33 514.86 1101.86 515.29 1101.21C515.728 1100.56 515.946 1099.74 515.946 1098.74ZM527.617 1105.66C526.603 1105.66 525.683 1105.47 524.856 1105.08C524.03 1104.7 523.374 1104.14 522.887 1103.41C522.401 1102.67 522.158 1101.78 522.158 1100.74C522.158 1099.82 522.339 1099.08 522.7 1098.51C523.061 1097.93 523.544 1097.48 524.148 1097.16C524.752 1096.83 525.419 1096.59 526.148 1096.43C526.884 1096.26 527.624 1096.13 528.367 1096.03C529.34 1095.91 530.128 1095.81 530.732 1095.75C531.343 1095.68 531.788 1095.57 532.066 1095.41C532.35 1095.25 532.493 1094.97 532.493 1094.57V1094.49C532.493 1093.46 532.211 1092.66 531.649 1092.09C531.093 1091.52 530.249 1091.24 529.117 1091.24C527.944 1091.24 527.023 1091.5 526.357 1092.01C525.69 1092.52 525.221 1093.07 524.95 1093.66L522.617 1092.82C523.033 1091.85 523.589 1091.09 524.283 1090.55C524.985 1090 525.749 1089.62 526.575 1089.41C527.409 1089.18 528.228 1089.07 529.034 1089.07C529.548 1089.07 530.138 1089.13 530.805 1089.26C531.479 1089.38 532.128 1089.62 532.753 1090C533.385 1090.37 533.91 1090.94 534.326 1091.7C534.743 1092.45 534.951 1093.47 534.951 1094.74V1105.28H532.493V1103.12H532.368C532.201 1103.46 531.923 1103.83 531.534 1104.23C531.145 1104.63 530.628 1104.96 529.982 1105.24C529.336 1105.52 528.548 1105.66 527.617 1105.66ZM527.992 1103.45C528.965 1103.45 529.784 1103.26 530.451 1102.88C531.125 1102.49 531.632 1102 531.972 1101.4C532.319 1100.79 532.493 1100.16 532.493 1099.49V1097.24C532.389 1097.37 532.159 1097.48 531.805 1097.58C531.458 1097.68 531.055 1097.77 530.597 1097.84C530.145 1097.91 529.704 1097.98 529.274 1098.03C528.85 1098.08 528.506 1098.12 528.242 1098.16C527.603 1098.24 527.006 1098.38 526.45 1098.56C525.902 1098.74 525.457 1099.02 525.117 1099.39C524.783 1099.75 524.617 1100.24 524.617 1100.87C524.617 1101.72 524.933 1102.37 525.565 1102.8C526.204 1103.23 527.013 1103.45 527.992 1103.45ZM539.439 1105.28V1089.28H541.814V1091.7H541.981C542.273 1090.91 542.8 1090.26 543.564 1089.77C544.328 1089.28 545.19 1089.03 546.148 1089.03C546.329 1089.03 546.554 1089.03 546.825 1089.04C547.096 1089.05 547.301 1089.06 547.44 1089.07V1091.57C547.356 1091.55 547.165 1091.52 546.867 1091.48C546.575 1091.43 546.266 1091.41 545.94 1091.41C545.162 1091.41 544.467 1091.57 543.856 1091.9C543.252 1092.22 542.773 1092.66 542.418 1093.23C542.071 1093.79 541.897 1094.43 541.897 1095.16V1105.28H539.439ZM552.425 1111.28C552.008 1111.28 551.637 1111.25 551.31 1111.18C550.984 1111.12 550.758 1111.05 550.633 1110.99L551.258 1108.82C551.855 1108.98 552.383 1109.03 552.842 1108.99C553.3 1108.95 553.706 1108.74 554.06 1108.38C554.422 1108.02 554.751 1107.43 555.05 1106.62L555.508 1105.37L549.591 1089.28H552.258L556.675 1102.03H556.842L561.259 1089.28H563.926L557.134 1107.62C556.828 1108.44 556.45 1109.13 555.998 1109.67C555.547 1110.22 555.022 1110.62 554.425 1110.89C553.835 1111.15 553.168 1111.28 552.425 1111.28ZM582.465 1105.57C581.59 1105.56 580.715 1105.39 579.84 1105.07C578.964 1104.75 578.166 1104.22 577.443 1103.46C576.721 1102.7 576.141 1101.66 575.704 1100.37C575.266 1099.06 575.047 1097.42 575.047 1095.45C575.047 1093.56 575.224 1091.89 575.579 1090.43C575.933 1088.96 576.447 1087.73 577.12 1086.73C577.794 1085.72 578.607 1084.96 579.558 1084.44C580.517 1083.92 581.597 1083.66 582.798 1083.66C583.993 1083.66 585.055 1083.89 585.986 1084.37C586.924 1084.85 587.688 1085.51 588.278 1086.35C588.868 1087.2 589.25 1088.18 589.424 1089.28H586.882C586.646 1088.32 586.187 1087.53 585.507 1086.9C584.826 1086.26 583.923 1085.95 582.798 1085.95C581.145 1085.95 579.843 1086.67 578.891 1088.1C577.947 1089.54 577.471 1091.56 577.464 1094.16H577.631C578.02 1093.57 578.482 1093.06 579.017 1092.65C579.558 1092.22 580.156 1091.9 580.808 1091.67C581.461 1091.44 582.152 1091.32 582.882 1091.32C584.104 1091.32 585.222 1091.63 586.236 1092.24C587.25 1092.84 588.063 1093.68 588.674 1094.75C589.285 1095.81 589.591 1097.03 589.591 1098.41C589.591 1099.73 589.296 1100.93 588.705 1102.03C588.115 1103.12 587.285 1103.99 586.215 1104.64C585.153 1105.28 583.903 1105.59 582.465 1105.57ZM582.465 1103.28C583.34 1103.28 584.125 1103.06 584.819 1102.63C585.521 1102.19 586.073 1101.6 586.476 1100.87C586.885 1100.13 587.09 1099.31 587.09 1098.41C587.09 1097.52 586.892 1096.72 586.497 1096C586.108 1095.27 585.569 1094.69 584.882 1094.26C584.201 1093.83 583.423 1093.61 582.548 1093.61C581.888 1093.61 581.274 1093.75 580.704 1094.01C580.135 1094.27 579.635 1094.62 579.204 1095.07C578.78 1095.52 578.447 1096.04 578.204 1096.63C577.961 1097.2 577.839 1097.81 577.839 1098.45C577.839 1099.3 578.037 1100.09 578.433 1100.82C578.836 1101.56 579.385 1102.15 580.079 1102.61C580.781 1103.06 581.576 1103.28 582.465 1103.28ZM596.394 1102.37L596.227 1103.49C596.109 1104.28 595.928 1105.13 595.685 1106.03C595.449 1106.94 595.202 1107.79 594.945 1108.59C594.689 1109.38 594.477 1110.02 594.31 1110.49H592.435C592.525 1110.05 592.643 1109.46 592.789 1108.73C592.935 1108 593.081 1107.19 593.227 1106.28C593.379 1105.39 593.504 1104.47 593.602 1103.53L593.727 1102.37H596.394ZM609.158 1105.28V1103.41L616.201 1095.7C617.027 1094.8 617.708 1094.01 618.243 1093.34C618.777 1092.67 619.173 1092.04 619.43 1091.45C619.694 1090.85 619.826 1090.23 619.826 1089.57C619.826 1088.82 619.645 1088.17 619.284 1087.62C618.93 1087.08 618.444 1086.65 617.826 1086.35C617.208 1086.05 616.513 1085.91 615.742 1085.91C614.923 1085.91 614.207 1086.08 613.596 1086.42C612.992 1086.75 612.523 1087.22 612.19 1087.82C611.863 1088.43 611.7 1089.13 611.7 1089.95H609.241C609.241 1088.7 609.53 1087.6 610.106 1086.66C610.683 1085.71 611.467 1084.97 612.461 1084.45C613.461 1083.92 614.582 1083.66 615.826 1083.66C617.076 1083.66 618.184 1083.92 619.149 1084.45C620.114 1084.97 620.871 1085.69 621.42 1086.58C621.969 1087.48 622.243 1088.48 622.243 1089.57C622.243 1090.36 622.101 1091.12 621.816 1091.87C621.538 1092.62 621.052 1093.45 620.357 1094.36C619.67 1095.27 618.715 1096.39 617.492 1097.7L612.7 1102.82V1102.99H622.618V1105.28H609.158ZM633.88 1105.57C632.31 1105.57 630.973 1105.15 629.869 1104.29C628.765 1103.43 627.921 1102.19 627.337 1100.55C626.754 1098.91 626.462 1096.93 626.462 1094.61C626.462 1092.31 626.754 1090.34 627.337 1088.71C627.928 1087.07 628.775 1085.82 629.879 1084.96C630.991 1084.09 632.324 1083.66 633.88 1083.66C635.436 1083.66 636.766 1084.09 637.87 1084.96C638.981 1085.82 639.828 1087.07 640.412 1088.71C641.002 1090.34 641.297 1092.31 641.297 1094.61C641.297 1096.93 641.006 1098.91 640.422 1100.55C639.839 1102.19 638.995 1103.43 637.891 1104.29C636.786 1105.15 635.449 1105.57 633.88 1105.57ZM633.88 1103.28C635.436 1103.28 636.644 1102.53 637.505 1101.03C638.366 1099.53 638.797 1097.39 638.797 1094.61C638.797 1092.77 638.599 1091.19 638.203 1089.9C637.814 1088.6 637.252 1087.61 636.516 1086.93C635.786 1086.25 634.908 1085.91 633.88 1085.91C632.338 1085.91 631.133 1086.67 630.265 1088.19C629.397 1089.7 628.963 1091.84 628.963 1094.61C628.963 1096.46 629.157 1098.03 629.546 1099.32C629.935 1100.62 630.494 1101.6 631.223 1102.27C631.959 1102.95 632.845 1103.28 633.88 1103.28ZM645.256 1105.28V1103.41L652.299 1095.7C653.125 1094.8 653.806 1094.01 654.341 1093.34C654.875 1092.67 655.271 1092.04 655.528 1091.45C655.792 1090.85 655.924 1090.23 655.924 1089.57C655.924 1088.82 655.744 1088.17 655.382 1087.62C655.028 1087.08 654.542 1086.65 653.924 1086.35C653.306 1086.05 652.611 1085.91 651.84 1085.91C651.021 1085.91 650.305 1086.08 649.694 1086.42C649.09 1086.75 648.621 1087.22 648.288 1087.82C647.961 1088.43 647.798 1089.13 647.798 1089.95H645.34C645.34 1088.7 645.628 1087.6 646.204 1086.66C646.781 1085.71 647.566 1084.97 648.559 1084.45C649.559 1083.92 650.68 1083.66 651.924 1083.66C653.174 1083.66 654.282 1083.92 655.247 1084.45C656.212 1084.97 656.969 1085.69 657.518 1086.58C658.067 1087.48 658.341 1088.48 658.341 1089.57C658.341 1090.36 658.199 1091.12 657.914 1091.87C657.636 1092.62 657.15 1093.45 656.455 1094.36C655.768 1095.27 654.813 1096.39 653.591 1097.7L648.798 1102.82V1102.99H658.716V1105.28H645.256ZM669.978 1105.57C668.408 1105.57 667.071 1105.15 665.967 1104.29C664.863 1103.43 664.019 1102.19 663.435 1100.55C662.852 1098.91 662.56 1096.93 662.56 1094.61C662.56 1092.31 662.852 1090.34 663.435 1088.71C664.026 1087.07 664.873 1085.82 665.977 1084.96C667.089 1084.09 668.422 1083.66 669.978 1083.66C671.534 1083.66 672.864 1084.09 673.968 1084.96C675.079 1085.82 675.926 1087.07 676.51 1088.71C677.1 1090.34 677.395 1092.31 677.395 1094.61C677.395 1096.93 677.104 1098.91 676.52 1100.55C675.937 1102.19 675.093 1103.43 673.989 1104.29C672.884 1105.15 671.547 1105.57 669.978 1105.57ZM669.978 1103.28C671.534 1103.28 672.742 1102.53 673.603 1101.03C674.464 1099.53 674.895 1097.39 674.895 1094.61C674.895 1092.77 674.697 1091.19 674.301 1089.9C673.912 1088.6 673.35 1087.61 672.614 1086.93C671.884 1086.25 671.006 1085.91 669.978 1085.91C668.436 1085.91 667.231 1086.67 666.363 1088.19C665.495 1089.7 665.061 1091.84 665.061 1094.61C665.061 1096.46 665.255 1098.03 665.644 1099.32C666.033 1100.62 666.592 1101.6 667.321 1102.27C668.057 1102.95 668.943 1103.28 669.978 1103.28ZM696.606 1089.28V1091.36H688.313V1089.28H696.606ZM690.73 1085.45H693.189V1100.7C693.189 1101.39 693.29 1101.91 693.491 1102.26C693.699 1102.6 693.963 1102.83 694.283 1102.95C694.609 1103.06 694.953 1103.12 695.314 1103.12C695.585 1103.12 695.807 1103.1 695.981 1103.07C696.155 1103.04 696.294 1103.01 696.398 1102.99L696.898 1105.2C696.731 1105.26 696.498 1105.32 696.2 1105.39C695.901 1105.46 695.523 1105.49 695.064 1105.49C694.37 1105.49 693.689 1105.34 693.022 1105.04C692.362 1104.74 691.814 1104.29 691.376 1103.68C690.946 1103.07 690.73 1102.3 690.73 1101.37V1085.45ZM706.633 1105.62C705.189 1105.62 703.921 1105.27 702.831 1104.58C701.747 1103.9 700.9 1102.94 700.289 1101.7C699.685 1100.46 699.382 1099.02 699.382 1097.37C699.382 1095.7 699.685 1094.24 700.289 1093C700.9 1091.76 701.747 1090.79 702.831 1090.1C703.921 1089.42 705.189 1089.07 706.633 1089.07C708.078 1089.07 709.342 1089.42 710.425 1090.1C711.516 1090.79 712.363 1091.76 712.967 1093C713.579 1094.24 713.884 1095.7 713.884 1097.37C713.884 1099.02 713.579 1100.46 712.967 1101.7C712.363 1102.94 711.516 1103.9 710.425 1104.58C709.342 1105.27 708.078 1105.62 706.633 1105.62ZM706.633 1103.41C707.731 1103.41 708.633 1103.13 709.342 1102.56C710.05 1102 710.575 1101.26 710.915 1100.34C711.255 1099.43 711.425 1098.43 711.425 1097.37C711.425 1096.3 711.255 1095.3 710.915 1094.38C710.575 1093.45 710.05 1092.7 709.342 1092.14C708.633 1091.57 707.731 1091.28 706.633 1091.28C705.536 1091.28 704.633 1091.57 703.925 1092.14C703.216 1092.7 702.692 1093.45 702.351 1094.38C702.011 1095.3 701.841 1096.3 701.841 1097.37C701.841 1098.43 702.011 1099.43 702.351 1100.34C702.692 1101.26 703.216 1102 703.925 1102.56C704.633 1103.13 705.536 1103.41 706.633 1103.41ZM734.389 1083.95H736.973V1099.2C736.973 1100.56 736.723 1101.72 736.223 1102.67C735.723 1103.62 735.018 1104.34 734.108 1104.83C733.198 1105.33 732.125 1105.57 730.889 1105.57C729.722 1105.57 728.684 1105.36 727.774 1104.94C726.864 1104.51 726.149 1103.9 725.628 1103.11C725.107 1102.31 724.846 1101.37 724.846 1100.28H727.388C727.388 1100.89 727.538 1101.41 727.836 1101.87C728.142 1102.31 728.559 1102.66 729.087 1102.91C729.614 1103.16 730.215 1103.28 730.889 1103.28C731.632 1103.28 732.264 1103.13 732.785 1102.81C733.306 1102.5 733.702 1102.04 733.973 1101.44C734.25 1100.83 734.389 1100.08 734.389 1099.2V1083.95ZM746.526 1105.66C745.512 1105.66 744.592 1105.47 743.765 1105.08C742.939 1104.7 742.282 1104.14 741.796 1103.41C741.31 1102.67 741.067 1101.78 741.067 1100.74C741.067 1099.82 741.248 1099.08 741.609 1098.51C741.97 1097.93 742.453 1097.48 743.057 1097.16C743.661 1096.83 744.328 1096.59 745.057 1096.43C745.793 1096.26 746.533 1096.13 747.276 1096.03C748.248 1095.91 749.037 1095.81 749.641 1095.75C750.252 1095.68 750.697 1095.57 750.975 1095.41C751.259 1095.25 751.402 1094.97 751.402 1094.57V1094.49C751.402 1093.46 751.12 1092.66 750.558 1092.09C750.002 1091.52 749.158 1091.24 748.026 1091.24C746.852 1091.24 745.932 1091.5 745.265 1092.01C744.599 1092.52 744.13 1093.07 743.859 1093.66L741.525 1092.82C741.942 1091.85 742.498 1091.09 743.192 1090.55C743.894 1090 744.658 1089.62 745.484 1089.41C746.318 1089.18 747.137 1089.07 747.943 1089.07C748.457 1089.07 749.047 1089.13 749.714 1089.26C750.388 1089.38 751.037 1089.62 751.662 1090C752.294 1090.37 752.818 1090.94 753.235 1091.7C753.652 1092.45 753.86 1093.47 753.86 1094.74V1105.28H751.402V1103.12H751.277C751.11 1103.46 750.832 1103.83 750.443 1104.23C750.054 1104.63 749.537 1104.96 748.891 1105.24C748.245 1105.52 747.457 1105.66 746.526 1105.66ZM746.901 1103.45C747.873 1103.45 748.693 1103.26 749.36 1102.88C750.033 1102.49 750.54 1102 750.881 1101.4C751.228 1100.79 751.402 1100.16 751.402 1099.49V1097.24C751.297 1097.37 751.068 1097.48 750.714 1097.58C750.367 1097.68 749.964 1097.77 749.506 1097.84C749.054 1097.91 748.613 1097.98 748.183 1098.03C747.759 1098.08 747.415 1098.12 747.151 1098.16C746.512 1098.24 745.915 1098.38 745.359 1098.56C744.811 1098.74 744.366 1099.02 744.026 1099.39C743.692 1099.75 743.526 1100.24 743.526 1100.87C743.526 1101.72 743.842 1102.37 744.474 1102.8C745.113 1103.23 745.922 1103.45 746.901 1103.45ZM760.806 1095.66V1105.28H758.348V1089.28H760.723V1091.78H760.931C761.306 1090.97 761.876 1090.32 762.64 1089.82C763.404 1089.32 764.39 1089.07 765.599 1089.07C766.682 1089.07 767.63 1089.29 768.443 1089.74C769.255 1090.18 769.887 1090.84 770.339 1091.74C770.79 1092.63 771.016 1093.75 771.016 1095.11V1105.28H768.557V1095.28C768.557 1094.02 768.231 1093.05 767.578 1092.34C766.925 1091.64 766.029 1091.28 764.89 1091.28C764.105 1091.28 763.404 1091.45 762.786 1091.79C762.175 1092.13 761.692 1092.63 761.338 1093.28C760.984 1093.93 760.806 1094.73 760.806 1095.66ZM785.593 1098.74V1089.28H788.052V1105.28H785.593V1102.57H785.427C785.051 1103.39 784.468 1104.08 783.676 1104.65C782.885 1105.21 781.884 1105.49 780.676 1105.49C779.676 1105.49 778.787 1105.27 778.009 1104.83C777.231 1104.39 776.62 1103.72 776.175 1102.83C775.731 1101.94 775.509 1100.81 775.509 1099.45V1089.28H777.967V1099.28C777.967 1100.45 778.294 1101.38 778.947 1102.07C779.606 1102.77 780.447 1103.12 781.468 1103.12C782.079 1103.12 782.701 1102.96 783.333 1102.65C783.972 1102.33 784.506 1101.86 784.937 1101.21C785.374 1100.56 785.593 1099.74 785.593 1098.74ZM797.264 1105.66C796.25 1105.66 795.33 1105.47 794.503 1105.08C793.677 1104.7 793.02 1104.14 792.534 1103.41C792.048 1102.67 791.805 1101.78 791.805 1100.74C791.805 1099.82 791.985 1099.08 792.347 1098.51C792.708 1097.93 793.19 1097.48 793.795 1097.16C794.399 1096.83 795.066 1096.59 795.795 1096.43C796.531 1096.26 797.271 1096.13 798.014 1096.03C798.986 1095.91 799.775 1095.81 800.379 1095.75C800.99 1095.68 801.434 1095.57 801.712 1095.41C801.997 1095.25 802.139 1094.97 802.139 1094.57V1094.49C802.139 1093.46 801.858 1092.66 801.296 1092.09C800.74 1091.52 799.896 1091.24 798.764 1091.24C797.59 1091.24 796.67 1091.5 796.003 1092.01C795.337 1092.52 794.868 1093.07 794.597 1093.66L792.263 1092.82C792.68 1091.85 793.236 1091.09 793.93 1090.55C794.632 1090 795.396 1089.62 796.222 1089.41C797.055 1089.18 797.875 1089.07 798.681 1089.07C799.195 1089.07 799.785 1089.13 800.452 1089.26C801.125 1089.38 801.775 1089.62 802.4 1090C803.032 1090.37 803.556 1090.94 803.973 1091.7C804.39 1092.45 804.598 1093.47 804.598 1094.74V1105.28H802.139V1103.12H802.014C801.848 1103.46 801.57 1103.83 801.181 1104.23C800.792 1104.63 800.275 1104.96 799.629 1105.24C798.983 1105.52 798.195 1105.66 797.264 1105.66ZM797.639 1103.45C798.611 1103.45 799.431 1103.26 800.098 1102.88C800.771 1102.49 801.278 1102 801.619 1101.4C801.966 1100.79 802.139 1100.16 802.139 1099.49V1097.24C802.035 1097.37 801.806 1097.48 801.452 1097.58C801.105 1097.68 800.702 1097.77 800.243 1097.84C799.792 1097.91 799.351 1097.98 798.92 1098.03C798.497 1098.08 798.153 1098.12 797.889 1098.16C797.25 1098.24 796.653 1098.38 796.097 1098.56C795.548 1098.74 795.104 1099.02 794.764 1099.39C794.43 1099.75 794.263 1100.24 794.263 1100.87C794.263 1101.72 794.58 1102.37 795.212 1102.8C795.85 1103.23 796.66 1103.45 797.639 1103.45ZM809.086 1105.28V1089.28H811.461V1091.7H811.628C811.919 1090.91 812.447 1090.26 813.211 1089.77C813.975 1089.28 814.836 1089.03 815.795 1089.03C815.975 1089.03 816.201 1089.03 816.472 1089.04C816.743 1089.05 816.948 1089.06 817.087 1089.07V1091.57C817.003 1091.55 816.812 1091.52 816.514 1091.48C816.222 1091.43 815.913 1091.41 815.586 1091.41C814.809 1091.41 814.114 1091.57 813.503 1091.9C812.899 1092.22 812.419 1092.66 812.065 1093.23C811.718 1093.79 811.544 1094.43 811.544 1095.16V1105.28H809.086ZM822.072 1111.28C821.655 1111.28 821.283 1111.25 820.957 1111.18C820.63 1111.12 820.405 1111.05 820.28 1110.99L820.905 1108.82C821.502 1108.98 822.03 1109.03 822.488 1108.99C822.947 1108.95 823.353 1108.74 823.707 1108.38C824.068 1108.02 824.398 1107.43 824.697 1106.62L825.155 1105.37L819.238 1089.28H821.905L826.322 1102.03H826.489L830.906 1089.28H833.573L826.78 1107.62C826.475 1108.44 826.096 1109.13 825.645 1109.67C825.193 1110.22 824.669 1110.62 824.072 1110.89C823.481 1111.15 822.815 1111.28 822.072 1111.28ZM852.112 1105.57C851.236 1105.56 850.361 1105.39 849.486 1105.07C848.611 1104.75 847.812 1104.22 847.09 1103.46C846.368 1102.7 845.788 1101.66 845.35 1100.37C844.913 1099.06 844.694 1097.42 844.694 1095.45C844.694 1093.56 844.871 1091.89 845.225 1090.43C845.58 1088.96 846.093 1087.73 846.767 1086.73C847.441 1085.72 848.253 1084.96 849.205 1084.44C850.163 1083.92 851.243 1083.66 852.445 1083.66C853.64 1083.66 854.702 1083.89 855.633 1084.37C856.57 1084.85 857.334 1085.51 857.925 1086.35C858.515 1087.2 858.897 1088.18 859.071 1089.28H856.529C856.293 1088.32 855.834 1087.53 855.154 1086.9C854.473 1086.26 853.57 1085.95 852.445 1085.95C850.792 1085.95 849.49 1086.67 848.538 1088.1C847.594 1089.54 847.118 1091.56 847.111 1094.16H847.278C847.667 1093.57 848.128 1093.06 848.663 1092.65C849.205 1092.22 849.802 1091.9 850.455 1091.67C851.108 1091.44 851.799 1091.32 852.528 1091.32C853.751 1091.32 854.869 1091.63 855.883 1092.24C856.897 1092.84 857.709 1093.68 858.321 1094.75C858.932 1095.81 859.237 1097.03 859.237 1098.41C859.237 1099.73 858.942 1100.93 858.352 1102.03C857.762 1103.12 856.932 1103.99 855.862 1104.64C854.799 1105.28 853.549 1105.59 852.112 1105.57ZM852.112 1103.28C852.987 1103.28 853.771 1103.06 854.466 1102.63C855.167 1102.19 855.72 1101.6 856.122 1100.87C856.532 1100.13 856.737 1099.31 856.737 1098.41C856.737 1097.52 856.539 1096.72 856.143 1096C855.754 1095.27 855.216 1094.69 854.529 1094.26C853.848 1093.83 853.07 1093.61 852.195 1093.61C851.535 1093.61 850.92 1093.75 850.351 1094.01C849.781 1094.27 849.281 1094.62 848.851 1095.07C848.427 1095.52 848.094 1096.04 847.851 1096.63C847.608 1097.2 847.486 1097.81 847.486 1098.45C847.486 1099.3 847.684 1100.09 848.08 1100.82C848.483 1101.56 849.031 1102.15 849.726 1102.61C850.427 1103.06 851.223 1103.28 852.112 1103.28ZM866.04 1102.37L865.874 1103.49C865.756 1104.28 865.575 1105.13 865.332 1106.03C865.096 1106.94 864.849 1107.79 864.592 1108.59C864.335 1109.38 864.123 1110.02 863.957 1110.49H862.081C862.172 1110.05 862.29 1109.46 862.436 1108.73C862.582 1108 862.727 1107.19 862.873 1106.28C863.026 1105.39 863.151 1104.47 863.248 1103.53L863.373 1102.37H866.04ZM878.805 1105.28V1103.41L885.847 1095.7C886.674 1094.8 887.354 1094.01 887.889 1093.34C888.424 1092.67 888.82 1092.04 889.077 1091.45C889.341 1090.85 889.473 1090.23 889.473 1089.57C889.473 1088.82 889.292 1088.17 888.931 1087.62C888.577 1087.08 888.091 1086.65 887.473 1086.35C886.854 1086.05 886.16 1085.91 885.389 1085.91C884.569 1085.91 883.854 1086.08 883.243 1086.42C882.639 1086.75 882.17 1087.22 881.836 1087.82C881.51 1088.43 881.347 1089.13 881.347 1089.95H878.888C878.888 1088.7 879.176 1087.6 879.753 1086.66C880.329 1085.71 881.114 1084.97 882.107 1084.45C883.107 1083.92 884.229 1083.66 885.472 1083.66C886.722 1083.66 887.83 1083.92 888.796 1084.45C889.761 1084.97 890.518 1085.69 891.067 1086.58C891.615 1087.48 891.89 1088.48 891.89 1089.57C891.89 1090.36 891.747 1091.12 891.463 1091.87C891.185 1092.62 890.699 1093.45 890.004 1094.36C889.317 1095.27 888.362 1096.39 887.139 1097.7L882.347 1102.82V1102.99H892.265V1105.28H878.805ZM903.527 1105.57C901.957 1105.57 900.62 1105.15 899.516 1104.29C898.411 1103.43 897.567 1102.19 896.984 1100.55C896.401 1098.91 896.109 1096.93 896.109 1094.61C896.109 1092.31 896.401 1090.34 896.984 1088.71C897.574 1087.07 898.422 1085.82 899.526 1084.96C900.637 1084.09 901.971 1083.66 903.527 1083.66C905.082 1083.66 906.412 1084.09 907.517 1084.96C908.628 1085.82 909.475 1087.07 910.059 1088.71C910.649 1090.34 910.944 1092.31 910.944 1094.61C910.944 1096.93 910.652 1098.91 910.069 1100.55C909.486 1102.19 908.642 1103.43 907.537 1104.29C906.433 1105.15 905.096 1105.57 903.527 1105.57ZM903.527 1103.28C905.082 1103.28 906.291 1102.53 907.152 1101.03C908.013 1099.53 908.444 1097.39 908.444 1094.61C908.444 1092.77 908.246 1091.19 907.85 1089.9C907.461 1088.6 906.898 1087.61 906.162 1086.93C905.433 1086.25 904.554 1085.91 903.527 1085.91C901.985 1085.91 900.78 1086.67 899.912 1088.19C899.043 1089.7 898.609 1091.84 898.609 1094.61C898.609 1096.46 898.804 1098.03 899.193 1099.32C899.582 1100.62 900.141 1101.6 900.87 1102.27C901.606 1102.95 902.492 1103.28 903.527 1103.28ZM914.903 1105.28V1103.41L921.945 1095.7C922.772 1094.8 923.453 1094.01 923.987 1093.34C924.522 1092.67 924.918 1092.04 925.175 1091.45C925.439 1090.85 925.571 1090.23 925.571 1089.57C925.571 1088.82 925.39 1088.17 925.029 1087.62C924.675 1087.08 924.189 1086.65 923.571 1086.35C922.952 1086.05 922.258 1085.91 921.487 1085.91C920.667 1085.91 919.952 1086.08 919.341 1086.42C918.737 1086.75 918.268 1087.22 917.934 1087.82C917.608 1088.43 917.445 1089.13 917.445 1089.95H914.986C914.986 1088.7 915.274 1087.6 915.851 1086.66C916.427 1085.71 917.212 1084.97 918.205 1084.45C919.205 1083.92 920.327 1083.66 921.57 1083.66C922.82 1083.66 923.928 1083.92 924.894 1084.45C925.859 1084.97 926.616 1085.69 927.165 1086.58C927.713 1087.48 927.988 1088.48 927.988 1089.57C927.988 1090.36 927.845 1091.12 927.561 1091.87C927.283 1092.62 926.797 1093.45 926.102 1094.36C925.415 1095.27 924.46 1096.39 923.237 1097.7L918.445 1102.82V1102.99H928.363V1105.28H914.903ZM939.333 1105.57C938.111 1105.57 937.01 1105.33 936.03 1104.85C935.051 1104.36 934.266 1103.69 933.676 1102.84C933.086 1102 932.763 1101.03 932.707 1099.95H935.207C935.305 1100.91 935.742 1101.71 936.52 1102.34C937.305 1102.97 938.242 1103.28 939.333 1103.28C940.208 1103.28 940.986 1103.08 941.667 1102.67C942.354 1102.26 942.892 1101.7 943.281 1100.98C943.677 1100.26 943.875 1099.44 943.875 1098.53C943.875 1097.6 943.67 1096.77 943.26 1096.04C942.858 1095.31 942.302 1094.73 941.594 1094.3C940.885 1093.88 940.076 1093.66 939.166 1093.66C938.513 1093.65 937.843 1093.75 937.156 1093.96C936.468 1094.16 935.902 1094.42 935.457 1094.74L933.04 1094.45L934.332 1083.95H945.417V1086.24H936.499L935.749 1092.53H935.874C936.312 1092.18 936.86 1091.9 937.52 1091.67C938.18 1091.44 938.868 1091.32 939.583 1091.32C940.889 1091.32 942.052 1091.64 943.073 1092.26C944.101 1092.88 944.906 1093.73 945.49 1094.8C946.08 1095.88 946.375 1097.11 946.375 1098.49C946.375 1099.85 946.07 1101.07 945.459 1102.14C944.854 1103.2 944.021 1104.04 942.958 1104.66C941.896 1105.27 940.687 1105.57 939.333 1105.57Z" fill="#9A9A9A"/>
<defs>
<filter id="filter0_dd_10064_45783" x="0.0927882" y="720.868" width="370.741" height="358.517" filterUnits="userSpaceOnUse" color-interpolation-filters="sRGB">
<feFlood flood-opacity="0" result="BackgroundImageFix"/>
<feColorMatrix in="SourceAlpha" type="matrix" values="0 0 0 0 0 0 0 0 0 0 0 0 0 0 0 0 0 0 127 0" result="hardAlpha"/>
<feMorphology radius="4.81787" operator="erode" in="SourceAlpha" result="effect1_dropShadow_10064_45783"/>
<feOffset dy="9.63574"/>
<feGaussianBlur stdDeviation="7.2268"/>
<feComposite in2="hardAlpha" operator="out"/>
<feColorMatrix type="matrix" values="0 0 0 0 0 0 0 0 0 0 0 0 0 0 0 0 0 0 0.05 0"/>
<feBlend mode="normal" in2="BackgroundImageFix" result="effect1_dropShadow_10064_45783"/>
<feColorMatrix in="SourceAlpha" type="matrix" values="0 0 0 0 0 0 0 0 0 0 0 0 0 0 0 0 0 0 127 0" result="hardAlpha"/>
<feMorphology radius="7.2268" operator="erode" in="SourceAlpha" result="effect2_dropShadow_10064_45783"/>
<feOffset dy="24.0893"/>
<feGaussianBlur stdDeviation="18.067"/>
<feComposite in2="hardAlpha" operator="out"/>
<feColorMatrix type="matrix" values="0 0 0 0 0 0 0 0 0 0 0 0 0 0 0 0 0 0 0.1 0"/>
<feBlend mode="normal" in2="effect1_dropShadow_10064_45783" result="effect2_dropShadow_10064_45783"/>
<feBlend mode="normal" in="SourceGraphic" in2="effect2_dropShadow_10064_45783" result="shape"/>
</filter>
<filter id="filter1_dd_10064_45783" x="370.834" y="706.199" width="370.741" height="373.185" filterUnits="userSpaceOnUse" color-interpolation-filters="sRGB">
<feFlood flood-opacity="0" result="BackgroundImageFix"/>
<feColorMatrix in="SourceAlpha" type="matrix" values="0 0 0 0 0 0 0 0 0 0 0 0 0 0 0 0 0 0 127 0" result="hardAlpha"/>
<feMorphology radius="4.81787" operator="erode" in="SourceAlpha" result="effect1_dropShadow_10064_45783"/>
<feOffset dy="9.63574"/>
<feGaussianBlur stdDeviation="7.2268"/>
<feComposite in2="hardAlpha" operator="out"/>
<feColorMatrix type="matrix" values="0 0 0 0 0 0 0 0 0 0 0 0 0 0 0 0 0 0 0.05 0"/>
<feBlend mode="normal" in2="BackgroundImageFix" result="effect1_dropShadow_10064_45783"/>
<feColorMatrix in="SourceAlpha" type="matrix" values="0 0 0 0 0 0 0 0 0 0 0 0 0 0 0 0 0 0 127 0" result="hardAlpha"/>
<feMorphology radius="7.2268" operator="erode" in="SourceAlpha" result="effect2_dropShadow_10064_45783"/>
<feOffset dy="24.0893"/>
<feGaussianBlur stdDeviation="18.067"/>
<feComposite in2="hardAlpha" operator="out"/>
<feColorMatrix type="matrix" values="0 0 0 0 0 0 0 0 0 0 0 0 0 0 0 0 0 0 0.1 0"/>
<feBlend mode="normal" in2="effect1_dropShadow_10064_45783" result="effect2_dropShadow_10064_45783"/>
<feBlend mode="normal" in="SourceGraphic" in2="effect2_dropShadow_10064_45783" result="shape"/>
</filter>
<filter id="filter2_dd_10064_45783" x="741.574" y="0.18213" width="467.333" height="1079.2" filterUnits="userSpaceOnUse" color-interpolation-filters="sRGB">
<feFlood flood-opacity="0" result="BackgroundImageFix"/>
<feColorMatrix in="SourceAlpha" type="matrix" values="0 0 0 0 0 0 0 0 0 0 0 0 0 0 0 0 0 0 127 0" result="hardAlpha"/>
<feMorphology radius="4.81787" operator="erode" in="SourceAlpha" result="effect1_dropShadow_10064_45783"/>
<feOffset dy="9.63574"/>
<feGaussianBlur stdDeviation="7.2268"/>
<feComposite in2="hardAlpha" operator="out"/>
<feColorMatrix type="matrix" values="0 0 0 0 0 0 0 0 0 0 0 0 0 0 0 0 0 0 0.05 0"/>
<feBlend mode="normal" in2="BackgroundImageFix" result="effect1_dropShadow_10064_45783"/>
<feColorMatrix in="SourceAlpha" type="matrix" values="0 0 0 0 0 0 0 0 0 0 0 0 0 0 0 0 0 0 127 0" result="hardAlpha"/>
<feMorphology radius="7.2268" operator="erode" in="SourceAlpha" result="effect2_dropShadow_10064_45783"/>
<feOffset dy="24.0893"/>
<feGaussianBlur stdDeviation="18.067"/>
<feComposite in2="hardAlpha" operator="out"/>
<feColorMatrix type="matrix" values="0 0 0 0 0 0 0 0 0 0 0 0 0 0 0 0 0 0 0.1 0"/>
<feBlend mode="normal" in2="effect1_dropShadow_10064_45783" result="effect2_dropShadow_10064_45783"/>
<feBlend mode="normal" in="SourceGraphic" in2="effect2_dropShadow_10064_45783" result="shape"/>
</filter>
<linearGradient id="paint0_linear_10064_45783" x1="980.851" y1="5.00001" x2="980.85" y2="2292.48" gradientUnits="userSpaceOnUse">
<stop stop-color="#C5A063"/>
<stop offset="1" stop-color="#5F4D30"/>
</linearGradient>
</defs>
</svg>
