<svg width="33" height="32" viewBox="0 0 33 32" fill="none" xmlns="http://www.w3.org/2000/svg">
<path opacity="0.2" d="M27.333 6V11H5.33301V6C5.33301 5.73478 5.43836 5.48043 5.6259 5.29289C5.81344 5.10536 6.06779 5 6.33301 5H26.333C26.5982 5 26.8526 5.10536 27.0401 5.29289C27.2277 5.48043 27.333 5.73478 27.333 6Z" fill="#C5A063"/>
<path d="M26.333 4H23.333V3C23.333 2.73478 23.2277 2.48043 23.0401 2.29289C22.8526 2.10536 22.5982 2 22.333 2C22.0678 2 21.8134 2.10536 21.6259 2.29289C21.4384 2.48043 21.333 2.73478 21.333 3V4H11.333V3C11.333 2.73478 11.2277 2.48043 11.0401 2.29289C10.8526 2.10536 10.5982 2 10.333 2C10.0678 2 9.81344 2.10536 9.6259 2.29289C9.43836 2.48043 9.33301 2.73478 9.33301 3V4H6.33301C5.80257 4 5.29387 4.21071 4.91879 4.58579C4.54372 4.96086 4.33301 5.46957 4.33301 6V26C4.33301 26.5304 4.54372 27.0391 4.91879 27.4142C5.29387 27.7893 5.80257 28 6.33301 28H26.333C26.8634 28 27.3721 27.7893 27.7472 27.4142C28.1223 27.0391 28.333 26.5304 28.333 26V6C28.333 5.46957 28.1223 4.96086 27.7472 4.58579C27.3721 4.21071 26.8634 4 26.333 4ZM9.33301 6V7C9.33301 7.26522 9.43836 7.51957 9.6259 7.70711C9.81344 7.89464 10.0678 8 10.333 8C10.5982 8 10.8526 7.89464 11.0401 7.70711C11.2277 7.51957 11.333 7.26522 11.333 7V6H21.333V7C21.333 7.26522 21.4384 7.51957 21.6259 7.70711C21.8134 7.89464 22.0678 8 22.333 8C22.5982 8 22.8526 7.89464 23.0401 7.70711C23.2277 7.51957 23.333 7.26522 23.333 7V6H26.333V10H6.33301V6H9.33301ZM26.333 26H6.33301V12H26.333V26Z" fill="#C5A063"/>
</svg>
