<svg width="1700" height="2223" viewBox="0 0 1700 2223" fill="none" xmlns="http://www.w3.org/2000/svg">
<path d="M635.772 2222.07C785.194 2009.42 982.265 1894.78 1143.48 1828.67C1277.89 1773.56 1332.87 1774.54 1433.15 1716.02C1650.75 1589.03 1800.81 1345.76 1613.81 1227.86C1521.7 1169.78 1404.96 1191.26 1183.97 1163.48C985.177 1138.49 711.765 1073.88 414.623 893.475" stroke="#C5A063" stroke-miterlimit="10"/>
<path d="M683.98 2221.65C812.397 2014.8 997.793 1901.32 1148.67 1835.24C1275.66 1779.64 1326.44 1775.12 1425 1712.97C1631.74 1582.57 1775.68 1354.11 1601.2 1236.05C1511.34 1175.23 1396.6 1189.06 1176.26 1156.51C982.271 1127.86 713.534 1061.92 419.057 884.63" stroke="#C5A063" stroke-miterlimit="10"/>
<path d="M732.182 2221.22C839.601 2020.19 1013.37 1907.77 1153.86 1841.8C1273.55 1785.6 1320.02 1775.81 1416.84 1709.9C1612.98 1576.39 1750.89 1362.1 1588.6 1244.21C1500.92 1180.53 1388.35 1186.95 1168.55 1149.53C979.419 1117.32 715.325 1049.95 423.525 875.757" stroke="#C5A063" stroke-miterlimit="10"/>
<path d="M780.393 2220.8C866.812 2025.59 1028.99 1914.11 1159.09 1848.36C1271.57 1791.48 1313.64 1776.6 1408.68 1706.82C1594.48 1570.46 1726.47 1369.74 1575.99 1252.37C1490.5 1185.69 1380.19 1184.93 1160.84 1142.53C976.608 1106.92 717.116 1037.97 427.975 866.901" stroke="#C5A063" stroke-miterlimit="10"/>
<path d="M828.598 2220.37C894.005 2030.96 1044.62 1920.31 1164.25 1854.91C1269.69 1797.26 1307.32 1777.46 1400.53 1703.77C1576.25 1564.8 1702.46 1377.11 1563.38 1260.57C1480.06 1190.74 1372.1 1183.06 1153.12 1135.57C973.813 1096.67 718.902 1026.02 432.459 858.066" stroke="#C5A063" stroke-miterlimit="10"/>
<path d="M876.799 2219.95C921.208 2036.37 1060.24 1926.38 1169.44 1861.47C1267.93 1802.93 1301.1 1778.46 1392.37 1700.71C1558.33 1559.34 1678.85 1384.17 1550.78 1268.74C1469.68 1195.66 1364.03 1181.32 1145.41 1128.59C971.007 1086.54 720.691 1014.05 436.873 849.213" stroke="#C5A063" stroke-miterlimit="10"/>
<path d="M925 2219.52C948.377 2041.75 1075.81 1932.27 1174.63 1868.02C1266.26 1808.45 1294.98 1779.52 1384.21 1697.64C1540.69 1554.04 1655.66 1390.98 1538.17 1276.91C1459.39 1200.44 1355.97 1179.65 1137.7 1121.6C968.173 1076.51 722.479 1002.06 441.326 840.352" stroke="#C5A063" stroke-miterlimit="10"/>
<path d="M973.206 2219.08C975.604 2047.13 1091.29 1937.97 1179.81 1874.57C1264.64 1813.81 1288.99 1780.62 1376.05 1694.56C1523.36 1548.89 1632.9 1397.54 1525.55 1285.07C1449.23 1205.1 1347.89 1178.12 1129.98 1114.6C965.305 1066.62 724.286 990.115 445.771 831.496" stroke="#C5A063" stroke-miterlimit="10"/>
<path d="M1021.41 2218.67C1002.81 2052.53 1106.63 1943.5 1185.01 1881.14C1263.05 1819.02 1283.19 1781.86 1367.89 1691.51C1506.32 1543.89 1610.56 1403.93 1512.95 1293.26C1439.24 1209.67 1339.75 1176.75 1122.27 1107.64C962.381 1056.82 726.05 978.147 450.221 822.619" stroke="#C5A063" stroke-miterlimit="10"/>
<path d="M1069.59 2218.25C1029.99 2057.93 1121.76 1948.82 1190.18 1887.7C1261.41 1824.07 1277.46 1783.13 1359.72 1688.45C1489.54 1538.99 1588.62 1410.17 1500.32 1301.44C1429.44 1214.15 1331.51 1175.49 1114.54 1100.66C959.363 1047.14 727.822 966.18 454.65 813.789" stroke="#C5A063" stroke-miterlimit="10"/>
<path d="M1117.82 2217.82C1057.22 2063.29 1136.66 1953.92 1195.39 1894.25C1259.7 1828.92 1271.98 1784.44 1351.57 1685.38C1473.08 1534.16 1567.12 1416.25 1487.74 1309.61C1419.93 1218.52 1323.19 1174.35 1106.84 1093.67C956.303 1037.54 729.631 954.21 459.131 804.928" stroke="#C5A063" stroke-miterlimit="10"/>
<path d="M1166.02 2217.39C1084.41 2068.7 1151.23 1958.82 1200.58 1900.8C1257.77 1833.58 1266.66 1785.77 1343.42 1682.31C1456.85 1529.38 1545.98 1422.22 1475.13 1317.79C1410.7 1222.81 1314.73 1173.32 1099.13 1086.69C953.13 1028.02 731.414 942.243 463.572 796.075" stroke="#C5A063" stroke-miterlimit="10"/>
<path d="M1214.23 2216.97C1111.62 2074.1 1165.42 1963.56 1205.78 1907.36C1255.53 1838.07 1261.53 1787.18 1335.26 1679.25C1440.88 1524.65 1525.22 1428.12 1462.52 1325.96C1401.81 1227.03 1306.1 1172.41 1091.42 1079.71C949.859 1018.58 733.205 930.277 468.021 787.218" stroke="#C5A063" stroke-miterlimit="10"/>
<path d="M1262.44 2216.54C1138.82 2079.48 1179.2 1968.16 1210.97 1913.92C1252.85 1842.4 1256.59 1788.59 1327.1 1676.19C1425.12 1519.95 1504.76 1433.97 1449.92 1334.14C1393.31 1231.18 1297.29 1171.61 1083.71 1072.73C946.473 1009.19 734.975 918.309 472.49 778.364" stroke="#C5A063" stroke-miterlimit="10"/>
<path d="M1310.64 2216.11C1166.02 2084.87 1192.54 1972.66 1216.16 1920.49C1249.59 1846.62 1251.83 1790.03 1318.95 1673.13C1409.59 1515.25 1484.71 1439.8 1437.31 1342.32C1385.26 1235.29 1288.29 1170.9 1075.97 1065.76C942.955 999.874 736.761 906.351 476.9 769.52" stroke="#C5A063" stroke-miterlimit="10"/>
<path d="M1358.85 2215.69C1193.22 2090.25 1205.41 1977.13 1221.35 1927.03C1245.61 1850.77 1247.27 1791.45 1310.79 1670.05C1394.27 1510.54 1464.93 1445.61 1424.7 1350.48C1377.69 1239.35 1279.1 1170.27 1068.28 1058.76C939.353 990.564 738.568 894.373 481.373 760.655" stroke="#C5A063" stroke-miterlimit="10"/>
<path d="M1407.05 2215.25C1220.42 2095.64 1242 1981.09 1226.54 1933.57C1201.25 1855.85 1242.9 1792.87 1302.63 1666.97C1379.1 1505.81 1445.45 1451.45 1412.09 1358.66C1370.68 1243.4 1269.63 1169.72 1060.57 1051.78C935.63 981.302 740.356 882.407 485.846 751.799" stroke="#C5A063" stroke-miterlimit="10"/>
<path d="M1455.25 2214.84C1247.63 2101.04 1249.81 1985.13 1231.73 1940.15C1200.05 1861.31 1238.71 1794.33 1294.48 1663.92C1364.14 1501.06 1426.25 1457.36 1399.48 1366.83C1364.23 1247.47 1259.97 1169.24 1052.84 1044.8C931.772 972.053 742.128 870.439 490.256 742.944" stroke="#C5A063" stroke-miterlimit="10"/>
<path d="M1503.46 2214.41C1274.83 2106.44 1256.86 1989.7 1236.92 1946.7C1199.71 1866.45 1234.71 1795.76 1286.35 1660.85C1349.3 1496.28 1407.28 1463.35 1386.91 1375.01C1358.45 1251.57 1250.1 1168.81 1045.18 1037.81C927.859 962.819 743.952 858.468 494.752 734.087" stroke="#C5A063" stroke-miterlimit="10"/>
<path d="M1551.66 2213.99C1302.03 2111.83 1253.11 1996.18 1242.11 1953.26C1220.49 1868.7 1230.88 1797.17 1278.18 1657.79C1334.6 1491.45 1388.5 1469.44 1374.29 1383.18C1353.28 1255.73 1239.91 1168.43 1037.43 1030.83C923.751 953.579 745.722 846.494 499.166 725.23" stroke="#C5A063" stroke-miterlimit="10"/>
<path d="M1599.87 2213.56C1329.23 2117.22 1264.45 2001.53 1247.31 1959.82C1212.06 1874.06 1227.22 1798.57 1270.02 1654.73C1320.02 1486.6 1369.92 1475.66 1361.68 1391.36C1348.84 1259.99 1229.57 1168.08 1029.73 1023.85C919.577 944.35 747.525 834.535 503.635 716.377" stroke="#C5A063" stroke-miterlimit="10"/>
<path d="M1648.07 2213.14C1356.44 2122.61 1275.81 2007.23 1252.5 1966.37C1203.15 1879.91 1223.72 1799.94 1261.85 1651.66C1305.56 1481.68 1351.49 1482.04 1349.06 1399.53C1345.06 1264.37 1218.95 1167.75 1022.01 1016.86C915.308 935.105 749.294 822.568 508.068 707.519" stroke="#C5A063" stroke-miterlimit="10"/>
<path d="M1187.6 2172.41C1020.78 1867.52 800.766 1703.18 620.777 1608.39C470.718 1529.38 409.335 1530.78 297.38 1446.88C54.4418 1264.81 -113.087 916.041 95.6847 747.006C198.527 663.74 328.855 694.541 575.574 654.713C797.515 618.882 1102.76 526.242 1434.5 267.602" stroke="#C5A063" stroke-miterlimit="10"/>
<path d="M1133.78 2171.8C990.41 1875.25 783.427 1712.55 614.981 1617.81C473.207 1538.1 416.514 1531.62 306.483 1442.5C75.6615 1255.56 -85.0374 928.016 109.761 758.745C210.091 671.553 338.189 691.387 584.185 644.721C800.757 603.635 1100.78 509.104 1429.55 254.922" stroke="#C5A063" stroke-miterlimit="10"/>
<path d="M1079.97 2171.19C960.043 1882.98 766.043 1721.79 609.191 1627.21C475.567 1546.64 423.691 1532.6 315.592 1438.1C96.619 1246.7 -57.354 939.466 123.836 770.453C221.727 679.149 347.402 688.357 592.794 634.704C803.945 588.527 1098.79 491.941 1424.56 242.201" stroke="#C5A063" stroke-miterlimit="10"/>
<path d="M1026.14 2170.58C929.662 1890.71 748.599 1730.88 603.35 1636.61C477.78 1555.07 430.81 1533.74 324.701 1433.69C117.271 1238.19 -30.095 950.424 137.911 782.153C233.357 686.545 356.504 685.467 601.404 624.673C807.081 573.62 1096.79 474.763 1419.6 229.503" stroke="#C5A063" stroke-miterlimit="10"/>
<path d="M972.329 2169.97C899.305 1898.41 731.157 1739.78 597.593 1646.01C479.874 1563.36 437.863 1534.97 333.805 1429.32C137.62 1230.08 -3.28132 960.982 151.989 793.899C245.011 693.794 365.549 682.783 610.016 614.689C810.205 558.925 1094.8 457.627 1414.59 216.836" stroke="#C5A063" stroke-miterlimit="10"/>
<path d="M918.517 2169.36C868.937 1906.16 713.712 1748.47 591.802 1655.41C481.846 1571.47 444.816 1536.39 342.921 1424.92C157.637 1222.24 23.0813 971.107 166.063 805.618C256.602 700.835 374.552 680.28 618.631 604.677C813.34 544.388 1092.8 440.468 1409.67 204.136" stroke="#C5A063" stroke-miterlimit="10"/>
<path d="M864.699 2168.75C838.601 1913.89 696.334 1756.93 586.005 1664.81C483.707 1579.4 451.643 1537.92 352.022 1420.53C177.32 1214.66 48.9603 980.872 180.138 817.339C268.082 707.708 383.549 677.896 627.233 594.668C816.499 530.026 1090.8 423.291 1404.69 191.445" stroke="#C5A063" stroke-miterlimit="10"/>
<path d="M810.878 2168.12C808.201 1921.59 679.044 1765.1 580.213 1674.19C485.513 1587.09 458.326 1539.51 361.128 1416.12C196.671 1207.28 74.3741 990.282 194.218 829.037C279.425 714.386 392.566 675.702 635.847 584.635C819.699 515.837 1088.78 406.155 1399.72 178.745" stroke="#C5A063" stroke-miterlimit="10"/>
<path d="M757.064 2167.53C777.831 1929.34 661.917 1773.02 574.413 1683.61C487.289 1594.55 464.8 1541.27 370.242 1411.74C215.694 1200.09 99.3104 999.444 208.29 840.777C290.582 720.937 401.657 673.732 644.461 574.644C822.966 501.795 1086.81 388.997 1394.76 166.017" stroke="#C5A063" stroke-miterlimit="10"/>
<path d="M703.27 2166.92C747.481 1937.07 645.034 1780.64 568.64 1693.01C489.122 1601.8 471.196 1543.09 379.367 1407.35C234.424 1193.08 123.812 1008.38 222.389 852.499C301.527 727.355 410.857 671.92 653.094 564.636C826.335 487.905 1084.84 371.836 1389.81 153.354" stroke="#C5A063" stroke-miterlimit="10"/>
<path d="M649.425 2166.3C717.087 1944.76 628.39 1787.95 562.823 1702.4C491.03 1608.74 477.318 1544.97 388.456 1402.94C252.804 1186.14 147.814 1017.1 236.437 864.215C312.145 733.616 420.14 670.283 661.684 554.62C829.75 474.146 1082.81 354.675 1384.81 140.65" stroke="#C5A063" stroke-miterlimit="10"/>
<path d="M595.612 2165.7C686.725 1952.52 612.128 1794.99 557.031 1711.8C493.187 1615.43 483.255 1546.89 397.562 1398.55C270.918 1179.3 171.416 1025.66 250.517 875.936C322.451 739.764 429.596 668.816 670.291 544.612C833.294 460.504 1080.83 337.519 1379.85 127.959" stroke="#C5A063" stroke-miterlimit="10"/>
<path d="M541.791 2165.09C656.355 1960.25 596.284 1801.78 551.231 1721.21C495.686 1621.86 488.99 1548.9 406.668 1394.16C288.756 1172.51 194.6 1034.12 264.596 887.653C332.378 745.824 439.224 667.51 678.904 534.603C836.949 446.966 1078.83 320.364 1374.89 115.262" stroke="#C5A063" stroke-miterlimit="10"/>
<path d="M487.976 2164.48C625.985 1967.98 580.901 1808.37 545.437 1730.61C498.677 1628.07 494.508 1550.92 415.781 1389.78C306.346 1165.77 217.433 1042.51 278.667 899.383C341.863 751.765 449.06 666.365 687.517 524.602C840.73 433.507 1076.85 303.206 1369.9 102.568" stroke="#C5A063" stroke-miterlimit="10"/>
<path d="M434.161 2163.87C595.62 1975.71 566.018 1814.84 539.643 1740.03C502.315 1634.13 499.817 1552.99 424.885 1385.39C323.69 1159.04 239.825 1050.87 292.745 911.116C350.855 757.66 459.111 665.356 696.151 514.605C844.659 420.151 1074.86 286.068 1364.98 89.8929" stroke="#C5A063" stroke-miterlimit="10"/>
<path d="M380.335 2163.26C565.246 1983.41 551.637 1821.24 533.845 1749.41C506.763 1640.07 504.906 1555.03 433.993 1380.98C340.784 1152.29 261.9 1059.19 306.812 922.816C359.299 763.478 469.367 664.445 704.73 504.574C848.674 406.8 1072.84 268.89 1359.98 77.1793" stroke="#C5A063" stroke-miterlimit="10"/>
<path d="M326.52 2162.62C534.874 1991.13 510.789 1826.9 528.044 1758.78C556.275 1647.35 509.783 1557.06 443.097 1376.55C357.726 1145.5 283.651 1067.56 320.89 934.53C367.121 769.288 479.933 663.653 713.342 494.558C852.827 393.513 1070.84 251.728 1354.98 64.4748" stroke="#C5A063" stroke-miterlimit="10"/>
<path d="M272.704 2162.04C504.503 1998.89 502.064 1832.7 522.25 1768.21C557.624 1655.18 514.457 1559.15 452.202 1372.19C374.428 1138.69 305.081 1076.04 334.967 946.253C374.324 775.123 490.723 662.963 721.969 484.55C857.137 380.256 1068.86 234.574 1350.06 51.7845" stroke="#C5A063" stroke-miterlimit="10"/>
<path d="M218.885 2161.43C474.142 2006.62 494.2 1839.25 516.458 1777.61C558 1662.55 518.927 1561.2 461.279 1367.79C390.992 1131.84 326.268 1084.63 349.004 957.975C380.777 781.002 501.746 662.35 730.532 474.542C861.509 367.021 1066.83 217.413 1345.04 39.0882" stroke="#C5A063" stroke-miterlimit="10"/>
<path d="M165.069 2160.82C443.77 2014.35 498.383 1848.54 510.664 1787C534.801 1665.78 523.206 1563.22 470.398 1363.39C407.411 1124.92 347.236 1093.35 363.096 969.688C386.555 786.971 513.125 661.798 739.181 464.519C866.094 353.771 1064.85 200.244 1340.12 26.3879" stroke="#C5A063" stroke-miterlimit="10"/>
<path d="M111.254 2160.21C413.399 2022.08 485.722 1856.21 504.863 1796.41C544.212 1673.46 527.293 1565.23 479.51 1359.01C423.682 1117.96 367.973 1102.28 377.175 981.416C391.506 793.074 524.668 661.294 747.772 454.521C870.755 340.541 1062.84 183.1 1335.13 13.6964" stroke="#C5A063" stroke-miterlimit="10"/>
<path d="M57.434 2159.6C383.03 2029.8 473.047 1864.4 499.071 1805.81C554.161 1681.85 531.202 1567.2 488.632 1354.61C439.835 1110.91 388.548 1111.42 391.262 993.132C395.736 799.354 536.526 660.829 756.394 444.507C875.521 327.289 1060.86 165.945 1330.18 0.999977" stroke="#C5A063" stroke-miterlimit="10"/>
</svg>
